<?xml version="1.0" encoding="UTF-8"?>
<svg width="150px" height="42px" viewBox="0 0 150 42" version="1.1" xmlns="http://www.w3.org/2000/svg" xmlns:xlink="http://www.w3.org/1999/xlink">
    <!-- Generator: Sketch 53 (72520) - https://sketchapp.com -->
    <title>Fill 118</title>
    <desc>Created with Sketch.</desc>
    <g id="Page-1" stroke="none" stroke-width="1" fill="none" fill-rule="evenodd">
        <g id="Marriage_Template_Vikram" transform="translate(-107.000000, -1745.000000)" fill="#EFE6D1">
            <g id="Group-2" transform="translate(719.500000, 1766.000000) scale(1, -1) translate(-719.500000, -1766.000000) translate(-46.000000, 1745.000000)">
                <path d="M195.197,36.455 C199.518,36.455 203.839,36.455 208.161,36.455 C212.175,28.727 219.565,17.878 229.527,17.878 C239.491,17.878 246.88,28.726 250.894,36.455 C255.215,36.455 259.537,36.455 263.858,36.455 C260.529,30.02 256.695,23.783 251.749,18.364 C246.576,12.699 237.954,5.217 229.527,5.217 C220.83,5.217 212.021,13.038 206.755,18.969 C202.071,24.245 198.401,30.26 195.197,36.455 Z M245.043,36.455 C241.686,30.44 236.394,23.089 229.527,23.089 C222.655,23.089 217.374,30.425 214.012,36.455 C224.355,36.455 234.699,36.455 245.043,36.455 Z M172.017,41.455 C165.684,41.455 159.351,41.455 153.019,41.455 L153.019,36.455 C155.842,36.455 158.666,36.455 161.489,36.455 C163.837,36.455 166.185,36.455 168.533,36.455 C165.177,30.44 159.884,23.089 153.019,23.089 L153.019,17.878 C162.982,17.878 170.371,28.726 174.385,36.455 C178.707,36.455 183.028,36.455 187.349,36.455 C184.02,30.02 180.186,23.783 175.239,18.364 C170.067,12.699 161.444,5.217 153.019,5.217 L153.019,-2.84217094e-14 C161.92,-2.84217094e-14 171.497,7.258 177.252,13.05 C183.025,18.86 187.487,25.705 191.273,32.834 C195.188,25.469 199.824,18.414 205.873,12.482 C211.545,6.919 220.899,-2.84217094e-14 229.527,-2.84217094e-14 C238.429,-2.84217094e-14 248.005,7.258 253.761,13.05 C259.535,18.86 263.996,25.705 267.783,32.834 C271.697,25.469 276.334,18.414 282.382,12.482 C288.054,6.919 297.408,-2.84217094e-14 306.037,-2.84217094e-14 L306.037,5.217 C297.339,5.217 288.53,13.038 283.264,18.969 C278.58,24.245 274.91,30.26 271.706,36.455 C276.027,36.455 280.349,36.455 284.67,36.455 C288.684,28.727 296.075,17.878 306.037,17.878 L306.037,23.089 C299.164,23.089 293.883,30.425 290.521,36.455 C295.693,36.455 300.865,36.455 306.037,36.455 L306.037,41.455 C299.705,41.455 293.373,41.455 287.041,41.455 C286.733,41.52 286.413,41.516 286.098,41.455 C273.887,41.455 261.675,41.455 249.463,41.455 C249.15,41.515 248.832,41.519 248.526,41.455 C235.861,41.455 223.196,41.455 210.532,41.455 C210.224,41.52 209.904,41.516 209.589,41.455 C197.377,41.455 185.166,41.455 172.955,41.455 C172.641,41.515 172.322,41.519 172.017,41.455 L172.017,41.455 Z" id="Fill-118"></path>
            </g>
        </g>
    </g>
</svg>