<svg xmlns="http://www.w3.org/2000/svg" xmlns:xlink="http://www.w3.org/1999/xlink" width="1920" zoomAndPan="magnify" viewBox="0 0 1440 809.999993" height="1080" preserveAspectRatio="xMidYMid meet" version="1.0"><defs><g/></defs><g fill="#fff" fill-opacity="1"><g transform="translate(214.124995, 454.786785)"><g><path d="M 116.015625 -185.453125 C 116.015625 -167.566406 114.65625 -150.734375 111.9375 -134.953125 C 109.21875 -119.171875 105.578125 -102.6875 101.015625 -85.5 C 100.492188 -83.570312 100.054688 -81.726562 99.703125 -79.96875 C 99.347656 -78.21875 99.171875 -76.378906 99.171875 -74.453125 C 99.171875 -70.941406 100.003906 -67.738281 101.671875 -64.84375 C 103.335938 -61.945312 105.222656 -58.832031 107.328125 -55.5 C 109.429688 -52.175781 111.316406 -48.320312 112.984375 -43.9375 C 114.648438 -39.550781 115.484375 -34.203125 115.484375 -27.890625 C 115.484375 -24.734375 114.78125 -19.992188 113.375 -13.671875 C 111.976562 -7.359375 110.09375 -0.347656 107.71875 7.359375 C 105.351562 15.078125 102.59375 22.925781 99.4375 30.90625 C 96.28125 38.882812 92.90625 46.207031 89.3125 52.875 C 85.71875 59.539062 81.988281 64.976562 78.125 69.1875 C 74.269531 73.394531 70.585938 75.5 67.078125 75.5 C 63.398438 75.5 60.203125 74.140625 57.484375 71.421875 C 54.765625 68.703125 53.40625 65.5 53.40625 61.8125 C 53.40625 60.9375 53.578125 59.800781 53.921875 58.40625 C 54.804688 53.664062 55.992188 47.832031 57.484375 40.90625 C 58.972656 33.976562 60.59375 26.523438 62.34375 18.546875 C 64.09375 10.566406 65.84375 2.367188 67.59375 -6.046875 C 69.351562 -14.460938 70.976562 -22.484375 72.46875 -30.109375 C 73.957031 -37.742188 75.140625 -44.757812 76.015625 -51.15625 C 76.898438 -57.5625 77.34375 -62.78125 77.34375 -66.8125 C 77.34375 -69.09375 76.816406 -71.59375 75.765625 -74.3125 C 74.710938 -77.03125 73.265625 -79.53125 71.421875 -81.8125 C 69.578125 -84.09375 67.472656 -86.019531 65.109375 -87.59375 C 62.742188 -89.175781 60.332031 -89.96875 57.875 -89.96875 C 57 -89.96875 56.472656 -89.484375 56.296875 -88.515625 C 56.117188 -87.554688 55.851562 -86.8125 55.5 -86.28125 C 52.34375 -78.5625 48.878906 -71.019531 45.109375 -63.65625 C 41.335938 -56.289062 37.703125 -48.75 34.203125 -41.03125 C 31.046875 -33.84375 28.109375 -26.65625 25.390625 -19.46875 C 22.671875 -12.28125 19.734375 -5.085938 16.578125 2.109375 C 16.046875 3.160156 15.382812 4.253906 14.59375 5.390625 C 13.8125 6.535156 12.71875 7.109375 11.3125 7.109375 C 9.90625 7.109375 8.5 6.664062 7.09375 5.78125 C 5.695312 4.90625 4.382812 3.765625 3.15625 2.359375 C 1.925781 0.960938 0.957031 -0.476562 0.25 -1.96875 C -0.445312 -3.457031 -0.796875 -4.90625 -0.796875 -6.3125 C -0.796875 -7.894531 0.164062 -11.179688 2.09375 -16.171875 C 4.03125 -21.171875 6.441406 -26.957031 9.328125 -33.53125 C 12.222656 -40.113281 15.378906 -47.085938 18.796875 -54.453125 C 22.222656 -61.816406 25.382812 -68.613281 28.28125 -74.84375 C 31.175781 -81.070312 33.585938 -86.332031 35.515625 -90.625 C 37.441406 -94.914062 38.40625 -97.328125 38.40625 -97.859375 C 38.40625 -98.554688 37.484375 -99.390625 35.640625 -100.359375 C 33.796875 -101.328125 31.734375 -102.335938 29.453125 -103.390625 C 27.179688 -104.441406 24.992188 -105.578125 22.890625 -106.796875 C 20.785156 -108.023438 19.46875 -109.253906 18.9375 -110.484375 C 20.164062 -111.359375 21.304688 -111.835938 22.359375 -111.921875 C 23.410156 -112.015625 24.640625 -112.0625 26.046875 -112.0625 C 28.847656 -112.0625 31.609375 -111.269531 34.328125 -109.6875 C 37.046875 -108.113281 39.195312 -107.328125 40.78125 -107.328125 C 42 -107.328125 43.789062 -109.34375 46.15625 -113.375 C 48.53125 -117.414062 51.164062 -122.457031 54.0625 -128.5 C 56.957031 -134.550781 60.023438 -141.128906 63.265625 -148.234375 C 66.515625 -155.335938 69.628906 -161.914062 72.609375 -167.96875 C 75.585938 -174.019531 78.257812 -179.0625 80.625 -183.09375 C 83 -187.125 84.796875 -189.140625 86.015625 -189.140625 C 87.242188 -189.140625 88.601562 -188.875 90.09375 -188.34375 C 91.582031 -187.820312 92.941406 -187.125 94.171875 -186.25 C 95.398438 -185.375 96.410156 -184.320312 97.203125 -183.09375 C 97.992188 -181.863281 98.390625 -180.546875 98.390625 -179.140625 C 98.390625 -177.910156 97.46875 -175.144531 95.625 -170.84375 C 93.78125 -166.550781 91.539062 -161.597656 88.90625 -155.984375 C 86.28125 -150.378906 83.34375 -144.421875 80.09375 -138.109375 C 76.851562 -131.796875 73.914062 -125.921875 71.28125 -120.484375 C 68.65625 -115.046875 66.421875 -110.351562 64.578125 -106.40625 C 62.734375 -102.457031 61.8125 -100.132812 61.8125 -99.4375 C 61.8125 -98.90625 62.644531 -97.894531 64.3125 -96.40625 C 65.976562 -94.914062 67.90625 -93.425781 70.09375 -91.9375 C 72.289062 -90.445312 74.394531 -89.085938 76.40625 -87.859375 C 78.425781 -86.628906 79.789062 -86.015625 80.5 -86.015625 C 81.90625 -86.722656 83.351562 -89.398438 84.84375 -94.046875 C 86.332031 -98.691406 87.820312 -104.347656 89.3125 -111.015625 C 90.800781 -117.679688 92.242188 -124.957031 93.640625 -132.84375 C 95.046875 -140.738281 96.273438 -148.238281 97.328125 -155.34375 C 98.378906 -162.445312 99.210938 -168.757812 99.828125 -174.28125 C 100.441406 -179.800781 100.75 -183.703125 100.75 -185.984375 C 100.75 -188.441406 100.265625 -190.503906 99.296875 -192.171875 C 98.335938 -193.835938 97.679688 -195.632812 97.328125 -197.5625 L 100.234375 -200.984375 C 101.804688 -200.984375 103.554688 -200.675781 105.484375 -200.0625 C 107.410156 -199.445312 109.160156 -198.566406 110.734375 -197.421875 C 112.316406 -196.285156 113.632812 -194.925781 114.6875 -193.34375 C 115.75 -191.769531 116.28125 -190.019531 116.28125 -188.09375 Z M 100.75 -36.828125 C 100.75 -37.179688 100.53125 -38.015625 100.09375 -39.328125 C 99.65625 -40.640625 99.171875 -42.082031 98.640625 -43.65625 C 98.117188 -45.238281 97.640625 -46.734375 97.203125 -48.140625 C 96.765625 -49.546875 96.457031 -50.507812 96.28125 -51.03125 L 94.4375 -53.140625 C 93.914062 -52.265625 93.128906 -49.414062 92.078125 -44.59375 C 91.023438 -39.769531 89.796875 -33.894531 88.390625 -26.96875 C 86.984375 -20.039062 85.535156 -12.585938 84.046875 -4.609375 C 82.554688 3.367188 81.109375 11.039062 79.703125 18.40625 C 78.304688 25.78125 77.125 32.269531 76.15625 37.875 C 75.1875 43.488281 74.53125 47.347656 74.1875 49.453125 C 82.070312 36.296875 88.46875 22.484375 93.375 8.015625 C 98.289062 -6.441406 100.75 -21.390625 100.75 -36.828125 Z M 100.75 -36.828125 "/></g></g></g><g fill="#fff" fill-opacity="1"><g transform="translate(336.448838, 454.786785)"><g><path d="M 58.140625 -159.15625 C 62.691406 -159.15625 66.894531 -157.835938 70.75 -155.203125 C 74.613281 -152.578125 76.546875 -148.71875 76.546875 -143.625 C 76.546875 -142.226562 75.972656 -139.773438 74.828125 -136.265625 C 73.691406 -132.753906 72.25 -128.628906 70.5 -123.890625 C 68.75 -119.160156 66.773438 -114.078125 64.578125 -108.640625 C 62.390625 -103.203125 60.328125 -97.894531 58.390625 -92.71875 C 56.460938 -87.550781 54.707031 -82.773438 53.125 -78.390625 C 51.550781 -74.003906 50.414062 -70.5 49.71875 -67.875 C 50.945312 -68.925781 52.566406 -70.328125 54.578125 -72.078125 C 56.597656 -73.828125 58.703125 -75.578125 60.890625 -77.328125 C 63.085938 -79.085938 65.238281 -80.582031 67.34375 -81.8125 C 69.445312 -83.039062 71.289062 -83.65625 72.875 -83.65625 C 76.03125 -83.65625 78.703125 -82.160156 80.890625 -79.171875 C 83.085938 -76.191406 84.1875 -73.210938 84.1875 -70.234375 C 84.1875 -65.148438 82.125 -60.195312 78 -55.375 C 73.875 -50.550781 69.351562 -45.988281 64.4375 -41.6875 C 59.53125 -37.394531 55.015625 -33.492188 50.890625 -29.984375 C 46.773438 -26.484375 44.71875 -23.414062 44.71875 -20.78125 C 44.71875 -17.800781 45.679688 -15.390625 47.609375 -13.546875 C 49.546875 -11.703125 52.003906 -10.78125 54.984375 -10.78125 C 58.140625 -10.78125 61.554688 -11.875 65.234375 -14.0625 C 68.921875 -16.257812 72.691406 -19.023438 76.546875 -22.359375 C 80.410156 -25.691406 84.179688 -29.285156 87.859375 -33.140625 C 91.546875 -37.003906 95.054688 -40.644531 98.390625 -44.0625 C 101.722656 -47.476562 104.742188 -50.328125 107.453125 -52.609375 C 110.171875 -54.890625 112.410156 -56.117188 114.171875 -56.296875 L 115.21875 -55.25 C 114.695312 -53.3125 113.117188 -50.585938 110.484375 -47.078125 C 107.859375 -43.578125 104.703125 -39.765625 101.015625 -35.640625 C 97.328125 -31.523438 93.25 -27.363281 88.78125 -23.15625 C 84.3125 -18.945312 79.925781 -15.128906 75.625 -11.703125 C 71.332031 -8.285156 67.300781 -5.476562 63.53125 -3.28125 C 59.757812 -1.09375 56.734375 0 54.453125 0 C 51.296875 0 48.53125 -0.742188 46.15625 -2.234375 C 43.789062 -3.722656 41.773438 -5.648438 40.109375 -8.015625 C 38.453125 -10.390625 37.007812 -12.976562 35.78125 -15.78125 C 34.550781 -18.59375 33.5 -21.3125 32.625 -23.9375 C 31.738281 -22.53125 30.242188 -20.03125 28.140625 -16.4375 C 26.035156 -12.84375 23.753906 -9.113281 21.296875 -5.25 C 18.847656 -1.394531 16.484375 1.972656 14.203125 4.859375 C 11.921875 7.753906 10.164062 9.203125 8.9375 9.203125 C 8.238281 9.203125 7.273438 9.023438 6.046875 8.671875 C 4.816406 8.328125 3.632812 7.847656 2.5 7.234375 C 1.363281 6.617188 0.398438 5.875 -0.390625 5 C -1.179688 4.125 -1.578125 3.25 -1.578125 2.375 C -1.578125 1.664062 -0.0859375 -1.84375 2.890625 -8.15625 C 5.867188 -14.46875 9.59375 -22.359375 14.0625 -31.828125 C 18.539062 -41.296875 23.410156 -51.640625 28.671875 -62.859375 C 33.929688 -74.085938 38.84375 -84.875 43.40625 -95.21875 C 47.96875 -105.570312 51.78125 -114.867188 54.84375 -123.109375 C 57.914062 -131.359375 59.628906 -137.234375 59.984375 -140.734375 L 59.71875 -142.046875 C 58.84375 -141.703125 57.742188 -141.3125 56.421875 -140.875 C 55.109375 -140.4375 54.015625 -140.21875 53.140625 -140.21875 C 51.035156 -140.21875 49.101562 -141.351562 47.34375 -143.625 C 45.59375 -145.90625 44.71875 -148.015625 44.71875 -149.953125 C 44.71875 -151.171875 45.242188 -152.265625 46.296875 -153.234375 C 47.347656 -154.203125 48.578125 -155.078125 49.984375 -155.859375 C 51.390625 -156.648438 52.878906 -157.304688 54.453125 -157.828125 C 56.035156 -158.359375 57.265625 -158.800781 58.140625 -159.15625 Z M 64.1875 -64.1875 C 62.78125 -63.488281 61.203125 -62.523438 59.453125 -61.296875 C 57.703125 -60.066406 55.992188 -58.660156 54.328125 -57.078125 C 52.660156 -55.503906 51.210938 -53.882812 49.984375 -52.21875 C 48.753906 -50.550781 48.050781 -48.925781 47.875 -47.34375 C 50.851562 -49.976562 53.613281 -52.742188 56.15625 -55.640625 C 58.707031 -58.535156 61.382812 -61.382812 64.1875 -64.1875 Z M 64.1875 -64.1875 "/></g></g></g><g fill="#fff" fill-opacity="1"><g transform="translate(429.835838, 454.786785)"><g><path d="M 142.578125 -57.609375 C 142.398438 -55.679688 140.644531 -52.742188 137.3125 -48.796875 C 133.988281 -44.847656 129.78125 -40.460938 124.6875 -35.640625 C 119.601562 -30.816406 114.035156 -25.863281 107.984375 -20.78125 C 101.929688 -15.695312 96.054688 -11.09375 90.359375 -6.96875 C 84.660156 -2.851562 79.53125 0.519531 74.96875 3.15625 C 70.414062 5.789062 67.082031 7.109375 64.96875 7.109375 C 63.039062 7.109375 61.285156 6.492188 59.703125 5.265625 C 58.128906 4.035156 56.726562 2.539062 55.5 0.78125 C 54.28125 -0.96875 53.316406 -2.847656 52.609375 -4.859375 C 51.910156 -6.878906 51.5625 -8.679688 51.5625 -10.265625 C 51.5625 -13.765625 52.175781 -17.179688 53.40625 -20.515625 C 54.632812 -23.847656 55.773438 -27.09375 56.828125 -30.25 C 53.316406 -27.789062 49.984375 -24.851562 46.828125 -21.4375 C 43.671875 -18.019531 40.335938 -14.734375 36.828125 -11.578125 C 33.316406 -8.421875 29.632812 -5.703125 25.78125 -3.421875 C 21.925781 -1.140625 17.628906 0 12.890625 0 C 9.203125 0 6.175781 -1.664062 3.8125 -5 C 1.445312 -8.332031 0.265625 -11.75 0.265625 -15.25 C 0.265625 -21.570312 1.753906 -27.582031 4.734375 -33.28125 C 7.710938 -38.976562 11.484375 -44.328125 16.046875 -49.328125 C 20.609375 -54.328125 25.5625 -58.84375 30.90625 -62.875 C 36.257812 -66.90625 41.300781 -70.5 46.03125 -73.65625 C 47.257812 -74.53125 48.578125 -75.445312 49.984375 -76.40625 C 51.390625 -77.375 52.878906 -77.859375 54.453125 -77.859375 C 57.085938 -77.859375 59.191406 -76.9375 60.765625 -75.09375 C 62.347656 -73.257812 63.617188 -71.070312 64.578125 -68.53125 C 65.546875 -65.988281 66.203125 -63.3125 66.546875 -60.5 C 66.898438 -57.695312 67.164062 -55.332031 67.34375 -53.40625 C 68.039062 -54.457031 69.351562 -56.601562 71.28125 -59.84375 C 73.21875 -63.09375 75.238281 -66.425781 77.34375 -69.84375 C 79.445312 -73.257812 81.460938 -76.28125 83.390625 -78.90625 C 85.316406 -81.539062 86.71875 -82.859375 87.59375 -82.859375 C 89.695312 -82.859375 91.625 -81.847656 93.375 -79.828125 C 95.132812 -77.816406 96.015625 -75.847656 96.015625 -73.921875 C 96.015625 -72.691406 95.269531 -70.320312 93.78125 -66.8125 C 92.289062 -63.3125 90.445312 -59.28125 88.25 -54.71875 C 86.0625 -50.15625 83.648438 -45.285156 81.015625 -40.109375 C 78.390625 -34.941406 75.976562 -30.035156 73.78125 -25.390625 C 71.59375 -20.742188 69.753906 -16.535156 68.265625 -12.765625 C 66.773438 -8.992188 66.03125 -6.226562 66.03125 -4.46875 L 66.03125 -2.890625 C 68.832031 -2.890625 72.335938 -4.203125 76.546875 -6.828125 C 80.753906 -9.460938 85.3125 -12.753906 90.21875 -16.703125 C 95.132812 -20.648438 100.175781 -24.898438 105.34375 -29.453125 C 110.519531 -34.015625 115.429688 -38.398438 120.078125 -42.609375 C 124.734375 -46.816406 128.988281 -50.5 132.84375 -53.65625 C 136.707031 -56.820312 139.691406 -58.929688 141.796875 -59.984375 Z M 14.203125 -7.625 C 17.015625 -7.625 20.742188 -8.984375 25.390625 -11.703125 C 30.035156 -14.421875 34.632812 -17.707031 39.1875 -21.5625 C 43.75 -25.425781 47.695312 -29.414062 51.03125 -33.53125 C 54.363281 -37.65625 56.03125 -41.125 56.03125 -43.9375 C 56.03125 -46.5625 56.160156 -49.1875 56.421875 -51.8125 C 56.691406 -54.445312 56.828125 -57.082031 56.828125 -59.71875 L 56.5625 -61.296875 C 56.03125 -61.117188 54.972656 -60.457031 53.390625 -59.3125 C 51.816406 -58.175781 50.109375 -56.863281 48.265625 -55.375 C 46.429688 -53.882812 44.722656 -52.4375 43.140625 -51.03125 C 41.566406 -49.625 40.425781 -48.660156 39.71875 -48.140625 C 33.9375 -43.234375 28.328125 -37.398438 22.890625 -30.640625 C 17.453125 -23.890625 13.769531 -16.742188 11.84375 -9.203125 C 12.007812 -8.148438 12.796875 -7.625 14.203125 -7.625 Z M 14.203125 -7.625 "/></g></g></g><g fill="#fff" fill-opacity="1"><g transform="translate(537.16514, 454.786785)"><g><path d="M 52.34375 -111.015625 C 54.625 -111.015625 57.253906 -110.660156 60.234375 -109.953125 C 63.222656 -109.253906 66.03125 -108.25 68.65625 -106.9375 C 71.289062 -105.625 73.523438 -103.957031 75.359375 -101.9375 C 77.203125 -99.914062 78.125 -97.503906 78.125 -94.703125 C 78.125 -93.648438 77.859375 -92.160156 77.328125 -90.234375 C 76.804688 -88.304688 76.148438 -86.375 75.359375 -84.4375 C 74.578125 -82.507812 73.613281 -80.800781 72.46875 -79.3125 C 71.332031 -77.820312 70.148438 -77.078125 68.921875 -77.078125 C 67.691406 -77.078125 66.15625 -77.691406 64.3125 -78.921875 C 62.476562 -80.148438 61.5625 -81.460938 61.5625 -82.859375 C 61.5625 -83.742188 61.863281 -84.929688 62.46875 -86.421875 C 63.082031 -87.910156 63.519531 -89.488281 63.78125 -91.15625 C 64.050781 -92.820312 64.007812 -94.398438 63.65625 -95.890625 C 63.3125 -97.378906 62.257812 -98.5625 60.5 -99.4375 L 60.5 -99.703125 C 58.21875 -99.523438 55.320312 -98.425781 51.8125 -96.40625 C 48.3125 -94.394531 44.9375 -91.941406 41.6875 -89.046875 C 38.445312 -86.148438 35.640625 -83.035156 33.265625 -79.703125 C 30.898438 -76.367188 29.71875 -73.300781 29.71875 -70.5 C 29.71875 -66.988281 30.113281 -63.21875 30.90625 -59.1875 C 31.695312 -55.15625 32.53125 -51.035156 33.40625 -46.828125 C 34.28125 -42.617188 35.113281 -38.453125 35.90625 -34.328125 C 36.695312 -30.203125 37.09375 -26.390625 37.09375 -22.890625 C 37.09375 -22.179688 37.132812 -21.648438 37.21875 -21.296875 C 37.3125 -20.953125 37.796875 -20.601562 38.671875 -20.25 C 40.953125 -20.957031 44.414062 -22.492188 49.0625 -24.859375 C 53.707031 -27.222656 58.570312 -29.71875 63.65625 -32.34375 C 68.75 -34.976562 73.707031 -37.304688 78.53125 -39.328125 C 83.351562 -41.347656 87.164062 -42.359375 89.96875 -42.359375 C 90.84375 -42.359375 91.847656 -42.269531 92.984375 -42.09375 C 94.128906 -41.914062 94.789062 -41.125 94.96875 -39.71875 L 92.328125 -37.625 C 91.453125 -37.789062 89.613281 -37.390625 86.8125 -36.421875 C 84.007812 -35.460938 80.765625 -34.148438 77.078125 -32.484375 C 73.390625 -30.816406 69.441406 -28.929688 65.234375 -26.828125 C 61.023438 -24.722656 57.078125 -22.707031 53.390625 -20.78125 C 49.710938 -18.851562 46.515625 -17.144531 43.796875 -15.65625 C 41.078125 -14.164062 39.28125 -13.15625 38.40625 -12.625 C 37.882812 -12.269531 37.007812 -10.078125 35.78125 -6.046875 C 34.550781 -2.015625 32.707031 2.976562 30.25 8.9375 C 27.789062 14.90625 24.585938 21.304688 20.640625 28.140625 C 16.703125 34.984375 11.925781 41.34375 6.3125 47.21875 C 0.695312 53.09375 -5.921875 57.957031 -13.546875 61.8125 C -21.171875 65.675781 -29.894531 67.609375 -39.71875 67.609375 C -44.101562 67.609375 -47.828125 66.289062 -50.890625 63.65625 C -53.960938 61.03125 -55.5 57.4375 -55.5 52.875 C -55.5 50.238281 -53.921875 46.945312 -50.765625 43 C -47.609375 39.0625 -43.53125 34.941406 -38.53125 30.640625 C -33.539062 26.347656 -28.019531 21.960938 -21.96875 17.484375 C -15.914062 13.015625 -9.992188 8.847656 -4.203125 4.984375 C 1.578125 1.128906 6.789062 -2.285156 11.4375 -5.265625 C 16.09375 -8.242188 19.554688 -10.347656 21.828125 -11.578125 C 23.765625 -12.628906 24.644531 -14.46875 24.46875 -17.09375 C 24.289062 -19.726562 24.203125 -22.007812 24.203125 -23.9375 C 24.203125 -28.144531 23.765625 -32.351562 22.890625 -36.5625 C 22.015625 -40.769531 21.050781 -45.019531 20 -49.3125 C 18.945312 -53.613281 17.976562 -57.867188 17.09375 -62.078125 C 16.21875 -66.285156 15.78125 -70.410156 15.78125 -74.453125 C 15.78125 -79.003906 16.960938 -83.472656 19.328125 -87.859375 C 21.703125 -92.242188 24.6875 -96.144531 28.28125 -99.5625 C 31.875 -102.988281 35.816406 -105.753906 40.109375 -107.859375 C 44.410156 -109.960938 48.488281 -111.015625 52.34375 -111.015625 Z M -50.765625 54.1875 C -50.765625 56.46875 -49.929688 57.828125 -48.265625 58.265625 C -46.597656 58.703125 -44.800781 59.007812 -42.875 59.1875 C -36.382812 57.4375 -29.765625 54.628906 -23.015625 50.765625 C -16.265625 46.910156 -9.953125 42.265625 -4.078125 36.828125 C 1.796875 31.390625 6.96875 25.335938 11.4375 18.671875 C 15.914062 12.015625 19.117188 5.085938 21.046875 -2.109375 L 21.3125 -2.375 C 21.3125 -3.070312 21.132812 -3.421875 20.78125 -3.421875 L 19.46875 -3.421875 C 17.539062 -2.546875 14.472656 -0.75 10.265625 1.96875 C 6.054688 4.6875 1.363281 7.84375 -3.8125 11.4375 C -8.988281 15.039062 -14.378906 18.945312 -19.984375 23.15625 C -25.597656 27.363281 -30.6875 31.4375 -35.25 35.375 C -39.8125 39.320312 -43.535156 42.960938 -46.421875 46.296875 C -49.316406 49.628906 -50.765625 52.257812 -50.765625 54.1875 Z M -50.765625 54.1875 "/></g></g></g><g fill="#fff" fill-opacity="1"><g transform="translate(607.665777, 454.786785)"><g><path d="M 80.234375 -61.296875 C 80.234375 -58.484375 79.441406 -54.925781 77.859375 -50.625 C 76.285156 -46.332031 74.535156 -42.082031 72.609375 -37.875 C 70.679688 -33.664062 68.925781 -29.765625 67.34375 -26.171875 C 65.757812 -22.578125 64.96875 -20.078125 64.96875 -18.671875 L 65.234375 -17.09375 C 70.492188 -20.082031 75.664062 -23.679688 80.75 -27.890625 C 85.84375 -32.097656 90.890625 -36.390625 95.890625 -40.765625 C 100.890625 -45.148438 105.929688 -49.445312 111.015625 -53.65625 C 116.097656 -57.875 121.269531 -61.5625 126.53125 -64.71875 C 126.351562 -64.363281 126.394531 -63.75 126.65625 -62.875 C 126.925781 -62 127.148438 -61.382812 127.328125 -61.03125 C 127.148438 -60.5 125.4375 -58.613281 122.1875 -55.375 C 118.945312 -52.132812 114.867188 -48.234375 109.953125 -43.671875 C 105.046875 -39.109375 99.695312 -34.238281 93.90625 -29.0625 C 88.125 -23.894531 82.6875 -19.117188 77.59375 -14.734375 C 72.507812 -10.347656 68.082031 -6.707031 64.3125 -3.8125 C 60.539062 -0.914062 58.21875 0.53125 57.34375 0.53125 C 53.84375 0.53125 51.171875 -0.695312 49.328125 -3.15625 C 47.484375 -5.613281 46.5625 -8.421875 46.5625 -11.578125 C 46.5625 -15.253906 47.484375 -19.375 49.328125 -23.9375 C 51.171875 -28.5 53.226562 -33.054688 55.5 -37.609375 C 57.78125 -42.171875 59.882812 -46.554688 61.8125 -50.765625 C 63.75 -54.972656 64.71875 -58.484375 64.71875 -61.296875 C 62.082031 -60.421875 58.878906 -58.050781 55.109375 -54.1875 C 51.335938 -50.332031 47.609375 -46.035156 43.921875 -41.296875 C 40.242188 -36.566406 36.828125 -31.875 33.671875 -27.21875 C 30.515625 -22.570312 28.144531 -18.9375 26.5625 -16.3125 C 22.882812 -10.34375 20.078125 -3.984375 18.140625 2.765625 C 16.210938 9.515625 14.285156 16.222656 12.359375 22.890625 C 12.015625 24.460938 11.664062 26.125 11.3125 27.875 C 10.957031 29.632812 9.640625 30.515625 7.359375 30.515625 C 4.734375 30.515625 2.410156 29.550781 0.390625 27.625 C -1.617188 25.695312 -2.625 23.414062 -2.625 20.78125 C -2.625 18.5 -1.832031 14.113281 -0.25 7.625 C 1.320312 1.132812 3.378906 -6.359375 5.921875 -14.859375 C 8.460938 -23.367188 11.265625 -32.398438 14.328125 -41.953125 C 17.398438 -51.515625 20.382812 -60.679688 23.28125 -69.453125 C 26.175781 -78.222656 28.804688 -86.023438 31.171875 -92.859375 C 33.535156 -99.703125 35.332031 -104.703125 36.5625 -107.859375 L 54.1875 -154.9375 C 54.539062 -155.46875 54.847656 -156.171875 55.109375 -157.046875 C 55.367188 -157.921875 55.941406 -158.359375 56.828125 -158.359375 C 57.878906 -158.359375 59.0625 -158.007812 60.375 -157.3125 C 61.6875 -156.613281 62.910156 -155.738281 64.046875 -154.6875 C 65.191406 -153.632812 66.203125 -152.492188 67.078125 -151.265625 C 67.953125 -150.035156 68.390625 -148.894531 68.390625 -147.84375 C 68.390625 -145.03125 67.46875 -140.816406 65.625 -135.203125 C 63.789062 -129.597656 61.515625 -123.242188 58.796875 -116.140625 C 56.078125 -109.035156 53.179688 -101.671875 50.109375 -94.046875 C 47.046875 -86.421875 44.195312 -79.1875 41.5625 -72.34375 C 38.9375 -65.5 36.789062 -59.445312 35.125 -54.1875 C 33.457031 -48.925781 32.796875 -45.242188 33.140625 -43.140625 C 35.242188 -45.421875 37.695312 -48.269531 40.5 -51.6875 C 43.3125 -55.113281 46.382812 -58.445312 49.71875 -61.6875 C 53.050781 -64.9375 56.46875 -67.695312 59.96875 -69.96875 C 63.476562 -72.25 66.8125 -73.390625 69.96875 -73.390625 C 73.125 -73.390625 75.625 -72.117188 77.46875 -69.578125 C 79.3125 -67.035156 80.234375 -64.273438 80.234375 -61.296875 Z M 80.234375 -61.296875 "/></g></g></g><g fill="#fff" fill-opacity="1"><g transform="translate(691.582597, 454.786785)"><g/></g></g><g fill="#fff" fill-opacity="1"><g transform="translate(754.980573, 454.786785)"><g><path d="M 132.84375 -165.734375 C 132.5 -161.171875 131.140625 -156.695312 128.765625 -152.3125 C 126.398438 -147.925781 123.550781 -143.71875 120.21875 -139.6875 C 116.882812 -135.65625 113.203125 -131.753906 109.171875 -127.984375 C 105.140625 -124.210938 101.238281 -120.613281 97.46875 -117.1875 C 93.695312 -113.769531 90.273438 -110.4375 87.203125 -107.1875 C 84.140625 -103.945312 81.90625 -100.835938 80.5 -97.859375 L 82.078125 -97.328125 C 85.410156 -96.984375 88.300781 -96.675781 90.75 -96.40625 C 93.207031 -96.144531 95.269531 -95.488281 96.9375 -94.4375 C 98.601562 -93.382812 99.832031 -91.757812 100.625 -89.5625 C 101.414062 -87.375 101.8125 -84.265625 101.8125 -80.234375 L 102.59375 -78.125 C 103.46875 -78.476562 104.382812 -78.785156 105.34375 -79.046875 C 106.3125 -79.304688 107.238281 -79.351562 108.125 -79.1875 C 109.175781 -79.1875 110.3125 -79.097656 111.53125 -78.921875 C 112.757812 -78.742188 113.898438 -78.476562 114.953125 -78.125 C 116.003906 -77.78125 116.878906 -77.210938 117.578125 -76.421875 C 118.285156 -75.628906 118.550781 -74.617188 118.375 -73.390625 C 118.195312 -71.460938 117.1875 -70.367188 115.34375 -70.109375 C 113.507812 -69.847656 111.890625 -69.628906 110.484375 -69.453125 C 106.628906 -68.921875 103.515625 -67.820312 101.140625 -66.15625 C 98.773438 -64.488281 96.671875 -62.472656 94.828125 -60.109375 C 92.992188 -57.742188 91.242188 -55.15625 89.578125 -52.34375 C 87.910156 -49.539062 86.023438 -46.910156 83.921875 -44.453125 C 76.378906 -35.679688 68.003906 -27.613281 58.796875 -20.25 C 49.585938 -12.882812 40.863281 -5.171875 32.625 2.890625 C 31.738281 3.765625 30.421875 5.164062 28.671875 7.09375 C 26.921875 9.03125 24.992188 10.960938 22.890625 12.890625 C 20.785156 14.816406 18.8125 16.523438 16.96875 18.015625 C 15.125 19.503906 13.675781 20.25 12.625 20.25 C 11.050781 20.082031 9.515625 19.207031 8.015625 17.625 C 6.523438 16.039062 5.210938 14.195312 4.078125 12.09375 C 2.941406 9.988281 2.019531 7.796875 1.3125 5.515625 C 0.613281 3.242188 0.351562 1.40625 0.53125 0 C 0.875 -5.4375 2.40625 -10.128906 5.125 -14.078125 C 7.84375 -18.023438 10.78125 -21.488281 13.9375 -24.46875 C 17.09375 -27.445312 19.941406 -30.160156 22.484375 -32.609375 C 25.035156 -35.066406 26.484375 -37.703125 26.828125 -40.515625 C 27.535156 -49.453125 29.332031 -58.65625 32.21875 -68.125 C 35.113281 -77.601562 38.488281 -87.117188 42.34375 -96.671875 C 46.207031 -106.234375 50.195312 -115.660156 54.3125 -124.953125 C 58.4375 -134.242188 62.078125 -143.101562 65.234375 -151.53125 C 65.585938 -152.40625 65.851562 -153.191406 66.03125 -153.890625 C 66.207031 -154.585938 66.296875 -155.378906 66.296875 -156.265625 C 64.890625 -155.554688 62.867188 -154.101562 60.234375 -151.90625 C 57.609375 -149.71875 54.9375 -147.484375 52.21875 -145.203125 C 49.5 -142.929688 47 -140.914062 44.71875 -139.15625 C 42.4375 -137.40625 41.035156 -136.53125 40.515625 -136.53125 C 38.585938 -136.707031 36.921875 -138.195312 35.515625 -141 C 34.109375 -143.800781 33.492188 -146.082031 33.671875 -147.84375 C 33.847656 -149.59375 34.640625 -151.171875 36.046875 -152.578125 C 40.253906 -157.140625 45.160156 -161.523438 50.765625 -165.734375 C 56.378906 -169.941406 62.34375 -173.578125 68.65625 -176.640625 C 74.96875 -179.710938 81.457031 -182.035156 88.125 -183.609375 C 94.789062 -185.191406 101.367188 -185.722656 107.859375 -185.203125 C 110.304688 -185.023438 113.019531 -184.453125 116 -183.484375 C 118.988281 -182.523438 121.796875 -181.210938 124.421875 -179.546875 C 127.054688 -177.878906 129.160156 -175.90625 130.734375 -173.625 C 132.316406 -171.34375 133.019531 -168.710938 132.84375 -165.734375 Z M 117.59375 -172.5625 C 116.1875 -172.738281 113.507812 -172.738281 109.5625 -172.5625 C 105.613281 -172.394531 101.625 -171.957031 97.59375 -171.25 C 93.5625 -170.550781 89.921875 -169.585938 86.671875 -168.359375 C 83.429688 -167.128906 81.722656 -165.460938 81.546875 -163.359375 C 81.898438 -162.660156 82.25 -161.914062 82.59375 -161.125 C 82.945312 -160.332031 83.035156 -159.5 82.859375 -158.625 C 82.515625 -154.769531 81.421875 -150.648438 79.578125 -146.265625 C 77.734375 -141.878906 75.710938 -137.445312 73.515625 -132.96875 C 71.328125 -128.5 69.3125 -124.070312 67.46875 -119.6875 C 65.632812 -115.300781 64.539062 -111.179688 64.1875 -107.328125 L 64.453125 -106.28125 C 68.484375 -109.613281 73.304688 -113.953125 78.921875 -119.296875 C 84.535156 -124.648438 90.054688 -130.304688 95.484375 -136.265625 C 100.921875 -142.222656 105.875 -148.226562 110.34375 -154.28125 C 114.820312 -160.332031 117.9375 -165.816406 119.6875 -170.734375 Z M 42.609375 -48.40625 C 48.753906 -51.914062 54.765625 -55.289062 60.640625 -58.53125 C 66.515625 -61.769531 72.609375 -64.882812 78.921875 -67.875 C 82.953125 -69.800781 85.625 -72.078125 86.9375 -74.703125 C 88.257812 -77.335938 89.359375 -80.671875 90.234375 -84.703125 L 88.65625 -86.546875 C 86.726562 -86.546875 84.359375 -86.019531 81.546875 -84.96875 C 78.742188 -83.914062 75.847656 -82.726562 72.859375 -81.40625 C 69.878906 -80.09375 67.117188 -78.910156 64.578125 -77.859375 C 62.035156 -76.804688 60.0625 -76.28125 58.65625 -76.28125 C 57.601562 -76.457031 56.640625 -76.941406 55.765625 -77.734375 C 54.890625 -78.523438 54.015625 -79.179688 53.140625 -79.703125 C 52.785156 -78.648438 52.035156 -76.585938 50.890625 -73.515625 C 49.753906 -70.453125 48.570312 -67.296875 47.34375 -64.046875 C 46.125 -60.804688 45.070312 -57.78125 44.1875 -54.96875 C 43.3125 -52.164062 42.875 -50.414062 42.875 -49.71875 Z M 18.15625 -5.78125 C 26.21875 -12.445312 34.238281 -19.242188 42.21875 -26.171875 C 50.195312 -33.097656 58.132812 -40.070312 66.03125 -47.09375 L 65.765625 -47.875 C 63.128906 -46.644531 59.179688 -44.320312 53.921875 -40.90625 C 48.660156 -37.488281 43.398438 -33.675781 38.140625 -29.46875 C 32.878906 -25.257812 28.273438 -20.960938 24.328125 -16.578125 C 20.390625 -12.191406 18.332031 -8.59375 18.15625 -5.78125 Z M 18.15625 -5.78125 "/></g></g></g><g fill="#fff" fill-opacity="1"><g transform="translate(887.826927, 454.786785)"><g><path d="M 18.421875 -13.15625 C 19.472656 -13.5 21.617188 -14.679688 24.859375 -16.703125 C 28.097656 -18.722656 31.910156 -21.175781 36.296875 -24.0625 C 40.679688 -26.957031 45.328125 -30.070312 50.234375 -33.40625 C 55.148438 -36.738281 59.710938 -39.765625 63.921875 -42.484375 C 68.128906 -45.203125 71.679688 -47.484375 74.578125 -49.328125 C 77.472656 -51.171875 79.179688 -52.09375 79.703125 -52.09375 C 80.578125 -52.09375 81.363281 -52.175781 82.0625 -52.34375 C 82.769531 -52.519531 83.300781 -52.257812 83.65625 -51.5625 C 83.300781 -50.6875 81.328125 -48.753906 77.734375 -45.765625 C 74.140625 -42.785156 69.753906 -39.320312 64.578125 -35.375 C 59.410156 -31.4375 53.84375 -27.273438 47.875 -22.890625 C 41.914062 -18.503906 36.304688 -14.46875 31.046875 -10.78125 C 25.785156 -7.101562 21.269531 -4.078125 17.5 -1.703125 C 13.726562 0.660156 11.578125 1.84375 11.046875 1.84375 C 9.472656 1.84375 7.984375 1.398438 6.578125 0.515625 C 5.171875 -0.359375 3.941406 -1.492188 2.890625 -2.890625 C 1.835938 -4.296875 1.003906 -5.832031 0.390625 -7.5 C -0.222656 -9.164062 -0.53125 -10.785156 -0.53125 -12.359375 C -0.53125 -15.347656 0.210938 -19.335938 1.703125 -24.328125 C 3.203125 -29.328125 5.003906 -34.5 7.109375 -39.84375 C 9.210938 -45.195312 11.359375 -50.328125 13.546875 -55.234375 C 15.742188 -60.148438 17.539062 -64.097656 18.9375 -67.078125 C 19.46875 -68.128906 20.609375 -70.492188 22.359375 -74.171875 C 24.109375 -77.859375 25.992188 -81.71875 28.015625 -85.75 C 30.035156 -89.789062 31.960938 -93.390625 33.796875 -96.546875 C 35.640625 -99.703125 36.914062 -101.28125 37.625 -101.28125 C 40.601562 -101.28125 43.40625 -100.269531 46.03125 -98.25 C 48.664062 -96.238281 50.421875 -93.828125 51.296875 -91.015625 C 50.421875 -89.441406 48.972656 -86.632812 46.953125 -82.59375 C 44.941406 -78.5625 42.75 -73.867188 40.375 -68.515625 C 38.007812 -63.171875 35.507812 -57.515625 32.875 -51.546875 C 30.25 -45.585938 27.835938 -39.976562 25.640625 -34.71875 C 23.453125 -29.457031 21.703125 -24.851562 20.390625 -20.90625 C 19.078125 -16.96875 18.421875 -14.382812 18.421875 -13.15625 Z M 60.765625 -141 C 61.460938 -141 62.601562 -140.78125 64.1875 -140.34375 C 65.769531 -139.90625 67.347656 -139.332031 68.921875 -138.625 C 70.503906 -137.925781 71.863281 -137.140625 73 -136.265625 C 74.132812 -135.390625 74.703125 -134.425781 74.703125 -133.375 C 74.703125 -132.144531 74.046875 -130.519531 72.734375 -128.5 C 71.421875 -126.488281 69.882812 -124.515625 68.125 -122.578125 C 66.375 -120.648438 64.578125 -118.984375 62.734375 -117.578125 C 60.898438 -116.179688 59.457031 -115.484375 58.40625 -115.484375 C 56.46875 -115.484375 54.398438 -116.664062 52.203125 -119.03125 C 50.015625 -121.40625 48.921875 -123.554688 48.921875 -125.484375 C 48.921875 -126.003906 49.445312 -127.097656 50.5 -128.765625 C 51.5625 -130.429688 52.75 -132.1875 54.0625 -134.03125 C 55.375 -135.875 56.6875 -137.492188 58 -138.890625 C 59.320312 -140.296875 60.242188 -141 60.765625 -141 Z M 60.765625 -141 "/></g></g></g><g fill="#fff" fill-opacity="1"><g transform="translate(953.32938, 454.786785)"><g><path d="M 57.609375 -102.328125 C 58.140625 -99.171875 57.960938 -95.003906 57.078125 -89.828125 C 56.203125 -84.660156 54.972656 -79.09375 53.390625 -73.125 C 51.816406 -67.164062 50.066406 -61.160156 48.140625 -55.109375 C 46.210938 -49.054688 44.414062 -43.488281 42.75 -38.40625 C 41.082031 -33.320312 39.675781 -29.023438 38.53125 -25.515625 C 37.394531 -22.003906 36.914062 -19.898438 37.09375 -19.203125 C 37.269531 -17.796875 38.015625 -16.960938 39.328125 -16.703125 C 40.640625 -16.441406 42 -16.3125 43.40625 -16.3125 C 44.8125 -16.3125 46.171875 -16.175781 47.484375 -15.90625 C 48.796875 -15.644531 49.539062 -14.898438 49.71875 -13.671875 C 49.894531 -12.972656 49.71875 -12.097656 49.1875 -11.046875 C 48.664062 -9.992188 47.96875 -9.378906 47.09375 -9.203125 C 45.15625 -8.859375 43.3125 -9.125 41.5625 -10 C 39.8125 -10.875 37.972656 -11.132812 36.046875 -10.78125 C 34.640625 -10.601562 32.796875 -7.796875 30.515625 -2.359375 C 28.234375 3.066406 25.554688 9.859375 22.484375 18.015625 C 19.421875 26.171875 15.867188 35.023438 11.828125 44.578125 C 7.796875 54.140625 3.328125 63.128906 -1.578125 71.546875 C -6.484375 79.972656 -11.914062 87.207031 -17.875 93.25 C -23.84375 99.300781 -30.335938 102.851562 -37.359375 103.90625 C -39.804688 104.257812 -42.300781 104.4375 -44.84375 104.4375 C -47.394531 104.4375 -49.765625 104.039062 -51.953125 103.25 C -54.148438 102.457031 -56.035156 101.226562 -57.609375 99.5625 C -59.191406 97.894531 -60.242188 95.660156 -60.765625 92.859375 C -61.816406 86.546875 -61.816406 80.40625 -60.765625 74.4375 C -59.710938 68.476562 -58.085938 62.648438 -55.890625 56.953125 C -53.703125 51.253906 -51.03125 45.773438 -47.875 40.515625 C -44.71875 35.253906 -41.472656 30.164062 -38.140625 25.25 C -34.984375 20.519531 -31.519531 16.398438 -27.75 12.890625 C -23.976562 9.378906 -19.988281 6.265625 -15.78125 3.546875 C -11.570312 0.828125 -7.1875 -1.664062 -2.625 -3.9375 C 1.925781 -6.21875 6.660156 -8.585938 11.578125 -11.046875 C 14.023438 -12.273438 15.90625 -13.632812 17.21875 -15.125 C 18.539062 -16.613281 19.640625 -18.585938 20.515625 -21.046875 C 21.921875 -24.898438 23.894531 -30.46875 26.4375 -37.75 C 28.976562 -45.03125 31.519531 -52.660156 34.0625 -60.640625 C 36.601562 -68.617188 38.796875 -76.15625 40.640625 -83.25 C 42.484375 -90.351562 43.40625 -95.660156 43.40625 -99.171875 C 41.820312 -98.296875 40.195312 -97.066406 38.53125 -95.484375 C 36.875 -93.910156 35.164062 -92.945312 33.40625 -92.59375 C 32 -92.25 30.460938 -92.820312 28.796875 -94.3125 C 27.140625 -95.800781 26.222656 -97.242188 26.046875 -98.640625 C 25.867188 -99.703125 26.566406 -101.148438 28.140625 -102.984375 C 29.722656 -104.828125 31.566406 -106.671875 33.671875 -108.515625 C 35.773438 -110.359375 37.921875 -111.976562 40.109375 -113.375 C 42.304688 -114.78125 43.929688 -115.570312 44.984375 -115.75 C 46.734375 -116.101562 48.351562 -115.882812 49.84375 -115.09375 C 51.34375 -114.300781 52.617188 -113.242188 53.671875 -111.921875 C 54.722656 -110.609375 55.550781 -109.078125 56.15625 -107.328125 C 56.769531 -105.578125 57.253906 -103.910156 57.609375 -102.328125 Z M -50.765625 93.125 C -50.242188 95.925781 -48.578125 97.238281 -45.765625 97.0625 C -41.554688 96.363281 -37.347656 93.953125 -33.140625 89.828125 C -28.929688 85.710938 -24.894531 80.628906 -21.03125 74.578125 C -17.175781 68.523438 -13.453125 61.90625 -9.859375 54.71875 C -6.265625 47.53125 -2.976562 40.382812 0 33.28125 C 2.976562 26.175781 5.609375 19.597656 7.890625 13.546875 C 10.171875 7.492188 12.015625 2.628906 13.421875 -1.046875 L 13.421875 -3.421875 L 10.78125 -2.890625 C 2.363281 0.265625 -5.832031 5.347656 -13.8125 12.359375 C -21.789062 19.378906 -28.71875 27.359375 -34.59375 36.296875 C -40.46875 45.242188 -44.984375 54.710938 -48.140625 64.703125 C -51.296875 74.703125 -52.171875 84.175781 -50.765625 93.125 Z M 58.40625 -157.3125 C 59.101562 -157.488281 60.285156 -157.578125 61.953125 -157.578125 C 63.617188 -157.578125 65.328125 -157.441406 67.078125 -157.171875 C 68.835938 -156.910156 70.375 -156.515625 71.6875 -155.984375 C 73 -155.460938 73.742188 -154.765625 73.921875 -153.890625 C 74.097656 -152.484375 73.878906 -150.597656 73.265625 -148.234375 C 72.648438 -145.867188 71.769531 -143.546875 70.625 -141.265625 C 69.488281 -138.984375 68.175781 -136.921875 66.6875 -135.078125 C 65.195312 -133.242188 63.660156 -132.238281 62.078125 -132.0625 C 61.203125 -131.882812 60.191406 -132.015625 59.046875 -132.453125 C 57.910156 -132.890625 56.816406 -133.503906 55.765625 -134.296875 C 54.710938 -135.085938 53.75 -135.921875 52.875 -136.796875 C 52 -137.671875 51.5625 -138.457031 51.5625 -139.15625 C 51.382812 -139.6875 51.554688 -140.914062 52.078125 -142.84375 C 52.609375 -144.769531 53.269531 -146.785156 54.0625 -148.890625 C 54.851562 -150.992188 55.640625 -152.921875 56.421875 -154.671875 C 57.210938 -156.429688 57.875 -157.3125 58.40625 -157.3125 Z M 58.40625 -157.3125 "/></g></g></g><g fill="#fff" fill-opacity="1"><g transform="translate(1013.833604, 454.786785)"><g><path d="M 0.265625 -0.53125 C 0.265625 -2.632812 1.007812 -6.179688 2.5 -11.171875 C 3.988281 -16.171875 5.875 -21.785156 8.15625 -28.015625 C 10.4375 -34.242188 13.019531 -40.6875 15.90625 -47.34375 C 18.800781 -54.007812 21.695312 -60.101562 24.59375 -65.625 C 27.488281 -71.15625 30.160156 -75.671875 32.609375 -79.171875 C 35.066406 -82.679688 37.085938 -84.4375 38.671875 -84.4375 C 39.722656 -84.4375 40.816406 -84.085938 41.953125 -83.390625 C 43.097656 -82.691406 44.195312 -81.816406 45.25 -80.765625 C 46.300781 -79.710938 47.175781 -78.570312 47.875 -77.34375 C 48.570312 -76.113281 48.921875 -74.972656 48.921875 -73.921875 C 48.921875 -72.515625 48.046875 -70.1875 46.296875 -66.9375 C 44.546875 -63.695312 42.351562 -59.84375 39.71875 -55.375 C 37.09375 -50.90625 34.242188 -46.082031 31.171875 -40.90625 C 28.097656 -35.726562 25.242188 -30.507812 22.609375 -25.25 C 19.984375 -19.988281 17.796875 -14.816406 16.046875 -9.734375 C 14.296875 -4.648438 13.421875 -0.00390625 13.421875 4.203125 C 17.628906 3.503906 22.1875 1.007812 27.09375 -3.28125 C 32.007812 -7.582031 37.050781 -12.800781 42.21875 -18.9375 C 47.394531 -25.070312 52.476562 -31.601562 57.46875 -38.53125 C 62.46875 -45.457031 67.070312 -51.859375 71.28125 -57.734375 C 75.5 -63.617188 79.226562 -68.488281 82.46875 -72.34375 C 85.71875 -76.195312 88.128906 -78.125 89.703125 -78.125 C 90.398438 -78.125 91.363281 -77.859375 92.59375 -77.328125 C 93.820312 -76.804688 95.050781 -76.148438 96.28125 -75.359375 C 97.507812 -74.578125 98.515625 -73.660156 99.296875 -72.609375 C 100.085938 -71.554688 100.484375 -70.59375 100.484375 -69.71875 C 100.484375 -69.363281 99.78125 -68.085938 98.375 -65.890625 C 96.976562 -63.703125 95.226562 -60.894531 93.125 -57.46875 C 91.019531 -54.050781 88.695312 -50.238281 86.15625 -46.03125 C 83.613281 -41.820312 81.289062 -37.613281 79.1875 -33.40625 C 77.082031 -29.195312 75.328125 -25.207031 73.921875 -21.4375 C 72.515625 -17.664062 71.8125 -14.46875 71.8125 -11.84375 C 71.8125 -10.4375 72.515625 -9.554688 73.921875 -9.203125 C 84.441406 -13.410156 93.644531 -19.238281 101.53125 -26.6875 C 109.425781 -34.144531 116.796875 -42.171875 123.640625 -50.765625 C 130.484375 -59.359375 137.015625 -67.953125 143.234375 -76.546875 C 149.460938 -85.140625 156.171875 -92.679688 163.359375 -99.171875 C 164.585938 -98.992188 166.164062 -98.25 168.09375 -96.9375 C 170.019531 -95.625 170.984375 -94.265625 170.984375 -92.859375 C 170.984375 -91.628906 170.0625 -89.785156 168.21875 -87.328125 C 166.382812 -84.878906 164.238281 -82.335938 161.78125 -79.703125 C 159.320312 -77.078125 156.953125 -74.625 154.671875 -72.34375 C 152.398438 -70.0625 150.738281 -68.394531 149.6875 -67.34375 C 147.050781 -64.539062 143.976562 -60.945312 140.46875 -56.5625 C 136.96875 -52.175781 133.242188 -47.484375 129.296875 -42.484375 C 125.347656 -37.484375 121.179688 -32.484375 116.796875 -27.484375 C 112.410156 -22.492188 108.023438 -17.9375 103.640625 -13.8125 C 99.253906 -9.6875 94.867188 -6.351562 90.484375 -3.8125 C 86.109375 -1.269531 81.988281 0 78.125 0 C 72.863281 0 68.476562 -1.617188 64.96875 -4.859375 C 61.46875 -8.109375 59.71875 -12.453125 59.71875 -17.890625 C 59.71875 -20.867188 59.976562 -23.757812 60.5 -26.5625 C 61.03125 -29.375 61.644531 -32.179688 62.34375 -34.984375 C 60.9375 -33.753906 58.960938 -31.648438 56.421875 -28.671875 C 53.878906 -25.691406 50.984375 -22.316406 47.734375 -18.546875 C 44.492188 -14.773438 41.078125 -10.875 37.484375 -6.84375 C 33.890625 -2.8125 30.46875 0.867188 27.21875 4.203125 C 23.976562 7.535156 21 10.296875 18.28125 12.484375 C 15.5625 14.679688 13.414062 15.78125 11.84375 15.78125 C 9.90625 15.78125 8.191406 15.253906 6.703125 14.203125 C 5.210938 13.148438 3.984375 11.789062 3.015625 10.125 C 2.054688 8.457031 1.359375 6.660156 0.921875 4.734375 C 0.484375 2.804688 0.265625 1.050781 0.265625 -0.53125 Z M 0.265625 -0.53125 "/></g></g></g><g fill="#fff" fill-opacity="1"><g transform="translate(1153.256414, 454.786785)"><g><path d="M 17.625 2.375 C 13.9375 2.195312 10.863281 1.273438 8.40625 -0.390625 C 5.957031 -2.054688 4.078125 -4.160156 2.765625 -6.703125 C 1.453125 -9.242188 0.570312 -12.003906 0.125 -14.984375 C -0.3125 -17.972656 -0.351562 -20.957031 0 -23.9375 C 0.53125 -29.019531 2.148438 -34.757812 4.859375 -41.15625 C 7.578125 -47.5625 10.910156 -53.570312 14.859375 -59.1875 C 18.804688 -64.800781 23.144531 -69.535156 27.875 -73.390625 C 32.613281 -77.253906 37.351562 -79.1875 42.09375 -79.1875 C 46.476562 -79.1875 50.160156 -77.34375 53.140625 -73.65625 C 56.117188 -69.976562 57.609375 -66.03125 57.609375 -61.8125 C 57.609375 -58.132812 56.160156 -54.015625 53.265625 -49.453125 C 50.367188 -44.890625 46.945312 -40.679688 43 -36.828125 C 39.0625 -32.972656 34.988281 -29.726562 30.78125 -27.09375 C 26.570312 -24.46875 23.148438 -23.15625 20.515625 -23.15625 C 19.640625 -23.15625 18.804688 -23.375 18.015625 -23.8125 C 17.234375 -24.25 16.488281 -24.640625 15.78125 -24.984375 C 14.726562 -24.109375 14.023438 -22.835938 13.671875 -21.171875 C 13.328125 -19.503906 13.285156 -17.835938 13.546875 -16.171875 C 13.804688 -14.503906 14.375 -13.054688 15.25 -11.828125 C 16.132812 -10.609375 17.453125 -10 19.203125 -10 C 22.359375 -10 26.171875 -10.914062 30.640625 -12.75 C 35.117188 -14.59375 39.988281 -17.003906 45.25 -19.984375 C 50.507812 -22.972656 55.941406 -26.304688 61.546875 -29.984375 C 67.160156 -33.671875 72.507812 -37.351562 77.59375 -41.03125 C 82.6875 -44.71875 87.378906 -48.226562 91.671875 -51.5625 C 95.972656 -54.894531 99.4375 -57.703125 102.0625 -59.984375 L 104.4375 -60.5 L 104.4375 -60.234375 L 105.21875 -58.921875 L 105.21875 -58.65625 C 102.238281 -55.5 98.554688 -51.816406 94.171875 -47.609375 C 89.785156 -43.398438 85.050781 -39.015625 79.96875 -34.453125 C 74.882812 -29.898438 69.578125 -25.382812 64.046875 -20.90625 C 58.523438 -16.4375 53.046875 -12.445312 47.609375 -8.9375 C 42.171875 -5.4375 36.863281 -2.632812 31.6875 -0.53125 C 26.519531 1.570312 21.832031 2.539062 17.625 2.375 Z M 26.5625 -43.140625 C 30.070312 -45.066406 33.273438 -47.34375 36.171875 -49.96875 C 39.066406 -52.601562 41.476562 -55.765625 43.40625 -59.453125 L 43.40625 -60.765625 C 42 -60.066406 40.460938 -59.015625 38.796875 -57.609375 C 37.128906 -56.203125 35.421875 -54.625 33.671875 -52.875 C 31.921875 -51.125 30.34375 -49.367188 28.9375 -47.609375 C 27.53125 -45.859375 26.476562 -44.367188 25.78125 -43.140625 Z M 26.5625 -43.140625 "/></g></g></g></svg>