<svg xmlns="http://www.w3.org/2000/svg" xmlns:xlink="http://www.w3.org/1999/xlink" width="1920" zoomAndPan="magnify" viewBox="0 0 1440 809.999993" height="1080" preserveAspectRatio="xMidYMid meet" version="1.0"><defs><g/></defs><g fill="#ffffff" fill-opacity="1"><g transform="translate(45.679109, 456.878837)"><g><path d="M 249.328125 -49.140625 C 250.441406 -48.347656 251.078125 -47.3125 251.234375 -46.03125 C 251.398438 -44.75 251.160156 -43.628906 250.515625 -42.671875 C 249.554688 -41.390625 248.28125 -40.75 246.6875 -40.75 C 246.050781 -40.75 245.410156 -40.910156 244.765625 -41.234375 C 243.003906 -41.554688 237.6875 -41.914062 228.8125 -42.3125 C 219.945312 -42.707031 209.441406 -43.144531 197.296875 -43.625 C 193.941406 -29.5625 190.625 -15.457031 187.34375 -1.3125 C 184.070312 12.820312 181.078125 26.445312 178.359375 39.5625 C 174.367188 58.257812 171.289062 73.476562 169.125 85.21875 C 166.96875 96.96875 165.53125 106.078125 164.8125 112.546875 C 164.09375 119.023438 163.734375 123.703125 163.734375 126.578125 C 164.378906 125.460938 165.097656 124.265625 165.890625 122.984375 C 166.535156 121.867188 167.492188 121.148438 168.765625 120.828125 C 170.046875 120.503906 171.164062 120.664062 172.125 121.3125 C 173.25 121.945312 173.96875 122.863281 174.28125 124.0625 C 174.601562 125.257812 174.445312 126.414062 173.8125 127.53125 C 172.207031 130.414062 170.40625 133.09375 168.40625 135.5625 C 166.414062 138.039062 164.222656 139.28125 161.828125 139.28125 C 161.023438 139.28125 160.222656 139.125 159.421875 138.8125 C 157.984375 138.164062 156.820312 136.84375 155.9375 134.84375 C 155.0625 132.851562 154.625 129.539062 154.625 124.90625 C 154.625 120.269531 155.222656 113.796875 156.421875 105.484375 C 157.617188 97.171875 159.492188 86.378906 162.046875 73.109375 C 164.609375 59.847656 168.007812 43.628906 172.25 24.453125 C 176.488281 5.273438 181.722656 -17.5 187.953125 -43.875 C 179.960938 -44.03125 171.8125 -44.226562 163.5 -44.46875 C 155.1875 -44.707031 147.113281 -44.90625 139.28125 -45.0625 C 137.363281 -45.226562 135.523438 -45.3125 133.765625 -45.3125 C 132.015625 -45.3125 130.257812 -45.3125 128.5 -45.3125 C 118.269531 -25.96875 108.359375 -7.828125 98.765625 9.109375 C 89.179688 26.046875 80.394531 39.953125 72.40625 50.828125 C 67.445312 57.378906 62.769531 61.691406 58.375 63.765625 C 53.976562 65.847656 50.0625 66.648438 46.625 66.171875 C 43.1875 65.691406 40.429688 64.8125 38.359375 63.53125 C 33.085938 60.488281 28.613281 55.613281 24.9375 48.90625 C 21.257812 42.195312 18.300781 34.285156 16.0625 25.171875 C 13.820312 16.054688 12.5 6.425781 12.09375 -3.71875 C 11.695312 -13.863281 12.257812 -23.890625 13.78125 -33.796875 C 15.300781 -43.710938 17.820312 -52.742188 21.34375 -60.890625 C 28.53125 -77.191406 39.035156 -88.140625 52.859375 -93.734375 C 66.679688 -99.328125 82.941406 -99.164062 101.640625 -93.25 C 102.921875 -92.9375 103.84375 -92.21875 104.40625 -91.09375 C 104.96875 -89.976562 105.007812 -88.78125 104.53125 -87.5 C 104.207031 -86.382812 103.484375 -85.503906 102.359375 -84.859375 C 101.242188 -84.222656 100.046875 -84.144531 98.765625 -84.625 C 93.171875 -86.382812 87.175781 -87.582031 80.78125 -88.21875 C 74.394531 -88.863281 68.046875 -88.425781 61.734375 -86.90625 C 55.421875 -85.382812 49.503906 -82.265625 43.984375 -77.546875 C 38.472656 -72.835938 33.722656 -66.007812 29.734375 -57.0625 C 26.054688 -48.75 23.578125 -39.914062 22.296875 -30.5625 C 21.015625 -21.21875 20.691406 -11.910156 21.328125 -2.640625 C 21.972656 6.628906 23.289062 15.300781 25.28125 23.375 C 27.28125 31.445312 29.800781 38.316406 32.84375 43.984375 C 35.882812 49.660156 39.238281 53.539062 42.90625 55.625 C 49.625 59.457031 56.976562 56.019531 64.96875 45.3125 C 72.476562 35.082031 80.785156 21.972656 89.890625 5.984375 C 99.003906 -9.992188 108.4375 -27.171875 118.1875 -45.546875 C 98.6875 -46.191406 83.0625 -46.710938 71.3125 -47.109375 C 59.570312 -47.503906 52.503906 -47.941406 50.109375 -48.421875 C 48.828125 -48.742188 47.828125 -49.421875 47.109375 -50.453125 C 46.390625 -51.492188 46.191406 -52.65625 46.515625 -53.9375 C 46.671875 -55.21875 47.304688 -56.175781 48.421875 -56.8125 C 49.546875 -57.457031 50.664062 -57.695312 51.78125 -57.53125 C 53.382812 -57.21875 57.660156 -56.898438 64.609375 -56.578125 C 71.554688 -56.253906 80.144531 -55.929688 90.375 -55.609375 C 100.601562 -55.296875 111.472656 -54.976562 122.984375 -54.65625 C 128.253906 -65.039062 133.566406 -75.46875 138.921875 -85.9375 C 144.273438 -96.40625 149.59375 -106.753906 154.875 -116.984375 C 167.65625 -142.398438 178.359375 -163.378906 186.984375 -179.921875 C 195.617188 -196.460938 202.734375 -209.285156 208.328125 -218.390625 C 213.921875 -227.503906 218.515625 -233.695312 222.109375 -236.96875 C 225.710938 -240.25 228.867188 -241.410156 231.578125 -240.453125 C 234.460938 -239.335938 236.144531 -236.976562 236.625 -233.375 C 237.101562 -229.78125 237.101562 -225.347656 236.625 -220.078125 C 235.65625 -209.691406 232.859375 -194.1875 228.234375 -173.5625 C 226.785156 -166.695312 224.742188 -157.910156 222.109375 -147.203125 C 219.472656 -136.492188 216.640625 -124.664062 213.609375 -111.71875 C 211.367188 -102.601562 209.050781 -93.050781 206.65625 -83.0625 C 204.257812 -73.070312 201.859375 -62.960938 199.453125 -52.734375 C 212.878906 -52.253906 223.03125 -51.851562 229.90625 -51.53125 C 236.78125 -51.21875 241.570312 -50.859375 244.28125 -50.453125 C 247 -50.054688 248.679688 -49.617188 249.328125 -49.140625 Z M 139.53125 -54.421875 C 149.757812 -54.097656 159.023438 -53.816406 167.328125 -53.578125 C 175.640625 -53.335938 183.234375 -53.140625 190.109375 -52.984375 C 194.421875 -71.523438 199.21875 -91.820312 204.5 -113.875 C 207.6875 -126.820312 210.554688 -138.648438 213.109375 -149.359375 C 215.671875 -160.066406 217.753906 -168.773438 219.359375 -175.484375 C 221.910156 -187.628906 223.828125 -197.378906 225.109375 -204.734375 C 226.390625 -212.085938 227.1875 -217.722656 227.5 -221.640625 C 227.820312 -225.554688 227.90625 -228.3125 227.75 -229.90625 C 225.03125 -227.1875 221.269531 -221.867188 216.46875 -213.953125 C 211.675781 -206.046875 206.285156 -196.5 200.296875 -185.3125 C 194.304688 -174.125 188.113281 -162.21875 181.71875 -149.59375 C 175.320312 -136.96875 169.085938 -124.742188 163.015625 -112.921875 C 158.222656 -103.328125 153.304688 -93.613281 148.265625 -83.78125 C 143.234375 -73.957031 138.242188 -64.171875 133.296875 -54.421875 C 134.253906 -54.421875 135.25 -54.421875 136.28125 -54.421875 C 137.320312 -54.421875 138.40625 -54.421875 139.53125 -54.421875 Z M 139.53125 -54.421875 "/></g></g></g><g fill="#ffffff" fill-opacity="1"><g transform="translate(308.902364, 456.878837)"><g><path d="M 103.328125 -53.9375 C 104.285156 -53.300781 104.921875 -52.34375 105.234375 -51.0625 C 105.554688 -49.78125 105.398438 -48.660156 104.765625 -47.703125 C 100.765625 -41.148438 95.609375 -34.273438 89.296875 -27.078125 C 82.984375 -19.890625 76.226562 -13.140625 69.03125 -6.828125 C 61.84375 -0.515625 54.648438 4.632812 47.453125 8.625 C 40.265625 12.625 33.796875 14.625 28.046875 14.625 C 26.765625 14.625 25.566406 14.546875 24.453125 14.390625 C 21.890625 13.910156 19.171875 12.507812 16.296875 10.1875 C 13.421875 7.875 11.425781 3.757812 10.3125 -2.15625 C 9.988281 -3.757812 10.382812 -5.195312 11.5 -6.46875 C 12.625 -7.75 14.382812 -9.425781 16.78125 -11.5 C 18.695312 -13.101562 20.8125 -15.019531 23.125 -17.25 C 25.445312 -19.488281 27.648438 -21.890625 29.734375 -24.453125 C 32.921875 -28.765625 34.992188 -32.71875 35.953125 -36.3125 C 36.921875 -39.914062 37.242188 -42.4375 36.921875 -43.875 C 36.117188 -43.550781 34.519531 -42.347656 32.125 -40.265625 C 29.726562 -38.191406 26.53125 -34.039062 22.53125 -27.8125 C 17.738281 -20.613281 13.460938 -12.578125 9.703125 -3.703125 C 5.953125 5.160156 2.476562 14.226562 -0.71875 23.5 C -3.914062 32.769531 -6.789062 41.640625 -9.34375 50.109375 L -10.546875 53.453125 C -11.179688 55.535156 -12.617188 56.578125 -14.859375 56.578125 C -15.179688 56.578125 -15.421875 56.578125 -15.578125 56.578125 C -18.296875 56.097656 -19.578125 54.5 -19.421875 51.78125 C -19.421875 50.5 -18.820312 46.863281 -17.625 40.875 C -16.425781 34.882812 -14.828125 27.210938 -12.828125 17.859375 C -10.828125 8.503906 -8.585938 -1.882812 -6.109375 -13.3125 C -3.628906 -24.738281 -0.992188 -36.484375 1.796875 -48.546875 C 4.597656 -60.609375 7.316406 -72.429688 9.953125 -84.015625 C 12.585938 -95.609375 15.023438 -106.28125 17.265625 -116.03125 C 17.421875 -116.351562 17.5 -116.753906 17.5 -117.234375 C 20.375 -129.210938 22.613281 -138.5625 24.21875 -145.28125 C 27.894531 -159.976562 31.96875 -173.359375 36.4375 -185.421875 C 40.914062 -197.492188 45.351562 -207.164062 49.75 -214.4375 C 54.144531 -221.707031 58.097656 -225.742188 61.609375 -226.546875 C 64.171875 -227.023438 66.25 -226.144531 67.84375 -223.90625 C 70.082031 -220.875 69.882812 -214.320312 67.25 -204.25 C 64.613281 -194.1875 59.773438 -181.398438 52.734375 -165.890625 C 45.703125 -150.390625 36.914062 -133.050781 26.375 -113.875 C 23.976562 -103.96875 21.421875 -93.140625 18.703125 -81.390625 C 15.984375 -69.640625 13.265625 -57.691406 10.546875 -45.546875 C 7.828125 -33.398438 5.269531 -21.8125 2.875 -10.78125 C 4.632812 -14.625 6.507812 -18.421875 8.5 -22.171875 C 10.5 -25.929688 12.539062 -29.488281 14.625 -32.84375 C 23.726562 -46.90625 31.5625 -53.695312 38.125 -53.21875 C 41.476562 -52.894531 43.789062 -51.140625 45.0625 -47.953125 C 46.664062 -44.585938 46.664062 -40.148438 45.0625 -34.640625 C 43.46875 -29.128906 40.753906 -23.816406 36.921875 -18.703125 C 34.679688 -15.828125 32.28125 -13.1875 29.71875 -10.78125 C 27.164062 -8.382812 24.851562 -6.3125 22.78125 -4.5625 C 22.300781 -4.070312 21.78125 -3.585938 21.21875 -3.109375 C 20.65625 -2.628906 20.210938 -2.234375 19.890625 -1.921875 C 20.535156 0.796875 21.492188 2.632812 22.765625 3.59375 C 24.046875 4.550781 25.164062 5.113281 26.125 5.28125 C 29.644531 5.914062 34.320312 4.832031 40.15625 2.03125 C 45.988281 -0.757812 52.300781 -4.867188 59.09375 -10.296875 C 65.882812 -15.734375 72.632812 -22.085938 79.34375 -29.359375 C 86.0625 -36.640625 91.898438 -44.351562 96.859375 -52.5 C 97.492188 -53.625 98.445312 -54.304688 99.71875 -54.546875 C 101 -54.785156 102.203125 -54.582031 103.328125 -53.9375 Z M 59.6875 -213.125 C 56.976562 -209.125 53.34375 -202.050781 48.78125 -191.90625 C 44.226562 -181.757812 39.710938 -167.972656 35.234375 -150.546875 C 43.234375 -166.691406 49.109375 -179.957031 52.859375 -190.34375 C 56.617188 -200.738281 58.894531 -208.332031 59.6875 -213.125 Z M 59.6875 -213.125 "/></g></g></g><g fill="#ffffff" fill-opacity="1"><g transform="translate(402.396951, 456.878837)"><g><path d="M 100.453125 -53.21875 C 101.566406 -52.738281 102.320312 -51.898438 102.71875 -50.703125 C 103.125 -49.503906 103.085938 -48.347656 102.609375 -47.234375 C 99.566406 -40.992188 96.25 -34.753906 92.65625 -28.515625 C 89.0625 -22.285156 85.304688 -16.570312 81.390625 -11.375 C 77.472656 -6.1875 73.4375 -2.035156 69.28125 1.078125 C 65.125 4.191406 60.96875 5.75 56.8125 5.75 C 56.019531 5.75 55.144531 5.671875 54.1875 5.515625 C 43.476562 3.429688 36.84375 -10.953125 34.28125 -37.640625 C 31.5625 -33.960938 28.40625 -29.84375 24.8125 -25.28125 C 21.21875 -20.726562 17.421875 -16.21875 13.421875 -11.75 C 12.785156 -11.101562 11.75 -10.101562 10.3125 -8.75 C 8.875 -7.394531 7.191406 -6.316406 5.265625 -5.515625 C 3.347656 -4.710938 1.429688 -4.789062 -0.484375 -5.75 C -4.316406 -7.1875 -6.15625 -11.34375 -6 -18.21875 C -6 -22.21875 -5.238281 -27.171875 -3.71875 -33.078125 C -2.195312 -38.992188 -0.0390625 -44.945312 2.75 -50.9375 C 5.550781 -56.9375 8.828125 -62.253906 12.578125 -66.890625 C 16.335938 -71.523438 20.535156 -74.640625 25.171875 -76.234375 C 28.046875 -77.347656 31.5625 -77.546875 35.71875 -76.828125 C 39.875 -76.109375 44.191406 -73.113281 48.671875 -67.84375 C 49.460938 -66.882812 49.816406 -65.765625 49.734375 -64.484375 C 49.660156 -63.210938 49.144531 -62.175781 48.1875 -61.375 C 47.226562 -60.570312 46.109375 -60.207031 44.828125 -60.28125 C 43.546875 -60.363281 42.507812 -60.882812 41.71875 -61.84375 C 37.875 -66.320312 34.550781 -68.441406 31.75 -68.203125 C 28.957031 -67.960938 26.601562 -67.125 24.6875 -65.6875 C 21.175781 -63.125 17.976562 -59.445312 15.09375 -54.65625 C 12.21875 -49.863281 9.820312 -44.828125 7.90625 -39.546875 C 5.988281 -34.273438 4.628906 -29.363281 3.828125 -24.8125 C 3.035156 -20.257812 2.796875 -16.941406 3.109375 -14.859375 C 3.585938 -15.179688 4.109375 -15.582031 4.671875 -16.0625 C 5.234375 -16.539062 5.832031 -17.179688 6.46875 -17.984375 C 11.269531 -23.253906 15.664062 -28.484375 19.65625 -33.671875 C 23.65625 -38.867188 27.09375 -43.46875 29.96875 -47.46875 C 30.769531 -48.582031 31.53125 -49.660156 32.25 -50.703125 C 32.96875 -51.742188 33.644531 -52.660156 34.28125 -53.453125 C 35.5625 -55.054688 37.238281 -55.539062 39.3125 -54.90625 C 41.394531 -54.425781 42.515625 -53.066406 42.671875 -50.828125 C 43.148438 -40.429688 43.988281 -32.078125 45.1875 -25.765625 C 46.382812 -19.453125 47.703125 -14.738281 49.140625 -11.625 C 50.578125 -8.507812 51.9375 -6.390625 53.21875 -5.265625 C 54.5 -4.148438 55.457031 -3.59375 56.09375 -3.59375 C 59.132812 -2.957031 64.007812 -6.070312 70.71875 -12.9375 C 77.4375 -19.8125 85.269531 -32.519531 94.21875 -51.0625 C 94.851562 -52.34375 95.769531 -53.179688 96.96875 -53.578125 C 98.164062 -53.984375 99.328125 -53.863281 100.453125 -53.21875 Z M 100.453125 -53.21875 "/></g></g></g><g fill="#ffffff" fill-opacity="1"><g transform="translate(491.576412, 456.878837)"><g><path d="M 106.6875 -54.90625 C 107.644531 -54.101562 108.203125 -53.0625 108.359375 -51.78125 C 108.515625 -50.5 108.113281 -49.378906 107.15625 -48.421875 C 102.519531 -42.992188 97.40625 -37 91.8125 -30.4375 C 86.21875 -23.882812 80.742188 -17.492188 75.390625 -11.265625 C 70.035156 -5.035156 65.441406 0.351562 61.609375 4.90625 C 57.773438 9.46875 55.21875 12.546875 53.9375 14.140625 C 51.21875 17.660156 48.582031 21.097656 46.03125 24.453125 C 48.101562 33.722656 48.300781 42.472656 46.625 50.703125 C 44.945312 58.929688 42.148438 66.242188 38.234375 72.640625 C 34.316406 79.035156 30.203125 83.988281 25.890625 87.5 C 21.410156 91.332031 17.253906 93.25 13.421875 93.25 C 11.023438 93.25 9.03125 92.453125 7.4375 90.859375 C 4.71875 88.304688 3.796875 84.507812 4.671875 79.46875 C 5.554688 74.4375 7.59375 68.722656 10.78125 62.328125 C 13.976562 55.929688 17.816406 49.296875 22.296875 42.421875 C 26.773438 35.554688 31.328125 28.925781 35.953125 22.53125 C 35.160156 19.65625 34.046875 16.738281 32.609375 13.78125 C 31.171875 10.820312 29.488281 7.828125 27.5625 4.796875 C 21.007812 -5.109375 15.457031 -14.414062 10.90625 -23.125 C 6.351562 -31.84375 4.238281 -39.796875 4.5625 -46.984375 C 5.351562 -60.253906 11.265625 -70.164062 22.296875 -76.71875 C 26.773438 -79.4375 31.488281 -81.035156 36.4375 -81.515625 C 41.394531 -81.992188 45.953125 -81.273438 50.109375 -79.359375 C 51.222656 -78.710938 51.976562 -77.789062 52.375 -76.59375 C 52.78125 -75.394531 52.742188 -74.238281 52.265625 -73.125 C 51.617188 -72 50.695312 -71.234375 49.5 -70.828125 C 48.300781 -70.429688 47.144531 -70.476562 46.03125 -70.96875 C 40.28125 -73.675781 33.96875 -72.953125 27.09375 -68.796875 C 18.78125 -63.847656 14.382812 -56.421875 13.90625 -46.515625 C 13.582031 -40.597656 15.578125 -33.644531 19.890625 -25.65625 C 24.210938 -17.664062 29.328125 -9.273438 35.234375 -0.484375 C 38.273438 4.148438 40.753906 8.867188 42.671875 13.671875 C 43.953125 12.066406 45.3125 10.304688 46.75 8.390625 C 48.03125 6.796875 50.625 3.679688 54.53125 -0.953125 C 58.445312 -5.585938 63.039062 -11.019531 68.3125 -17.25 C 73.59375 -23.488281 79.066406 -29.882812 84.734375 -36.4375 C 90.410156 -42.988281 95.566406 -48.984375 100.203125 -54.421875 C 101.003906 -55.378906 102.046875 -55.9375 103.328125 -56.09375 C 104.609375 -56.257812 105.726562 -55.863281 106.6875 -54.90625 Z M 28.765625 70.484375 C 29.890625 68.722656 31.25 66.203125 32.84375 62.921875 C 34.4375 59.648438 35.832031 55.65625 37.03125 50.9375 C 38.238281 46.226562 38.601562 40.992188 38.125 35.234375 C 30.769531 45.628906 25.289062 54.257812 21.6875 61.125 C 18.09375 68 15.773438 73.234375 14.734375 76.828125 C 13.703125 80.429688 13.347656 82.789062 13.671875 83.90625 C 14.785156 83.90625 16.78125 82.863281 19.65625 80.78125 C 22.53125 78.707031 25.566406 75.273438 28.765625 70.484375 Z M 28.765625 70.484375 "/></g></g></g><g fill="#ffffff" fill-opacity="1"><g transform="translate(588.187476, 456.878837)"><g><path d="M 113.640625 -54.90625 C 114.597656 -54.257812 115.234375 -53.296875 115.546875 -52.015625 C 115.867188 -50.742188 115.710938 -49.546875 115.078125 -48.421875 C 107.398438 -36.117188 100.601562 -26.128906 94.6875 -18.453125 C 88.78125 -10.785156 83.707031 -4.953125 79.46875 -0.953125 C 75.238281 3.035156 71.679688 5.75 68.796875 7.1875 C 65.921875 8.625 63.601562 9.34375 61.84375 9.34375 C 60.09375 9.34375 58.738281 9.265625 57.78125 9.109375 C 54.101562 8.148438 51.382812 5.953125 49.625 2.515625 C 47.863281 -0.921875 46.703125 -4.476562 46.140625 -8.15625 C 45.585938 -11.832031 45.226562 -14.628906 45.0625 -16.546875 C 44.75 -22.140625 44.113281 -25.894531 43.15625 -27.8125 C 42.195312 -29.726562 41.476562 -30.6875 41 -30.6875 C 40.832031 -30.6875 40.75 -30.6875 40.75 -30.6875 C 38.675781 -30.6875 35.238281 -27.769531 30.4375 -21.9375 C 25.644531 -16.101562 20.007812 -6.953125 13.53125 5.515625 C 7.0625 17.984375 0.3125 34.207031 -6.71875 54.1875 C -7.351562 56.257812 -8.789062 57.296875 -11.03125 57.296875 C -11.34375 57.296875 -11.660156 57.296875 -11.984375 57.296875 C -14.546875 56.660156 -15.742188 55.0625 -15.578125 52.5 C -15.421875 49.78125 -14.703125 44.90625 -13.421875 37.875 C -12.140625 30.84375 -10.421875 22.410156 -8.265625 12.578125 C -6.109375 2.753906 -3.710938 -7.90625 -1.078125 -19.40625 C 1.554688 -30.914062 4.269531 -42.582031 7.0625 -54.40625 C 9.863281 -66.238281 12.539062 -77.550781 15.09375 -88.34375 C 17.65625 -99.132812 19.972656 -108.84375 22.046875 -117.46875 C 24.128906 -126.101562 25.8125 -133.015625 27.09375 -138.203125 C 28.375 -143.398438 29.015625 -146.078125 29.015625 -146.234375 C 32.679688 -160.941406 36.753906 -174.328125 41.234375 -186.390625 C 45.710938 -198.460938 50.144531 -208.171875 54.53125 -215.515625 C 58.925781 -222.867188 62.804688 -226.867188 66.171875 -227.515625 C 68.878906 -227.992188 70.957031 -227.191406 72.40625 -225.109375 C 74.632812 -221.910156 74.429688 -215.238281 71.796875 -205.09375 C 69.160156 -194.945312 64.363281 -182.117188 57.40625 -166.609375 C 50.457031 -151.109375 41.628906 -133.769531 30.921875 -114.59375 C 28.046875 -102.601562 24.890625 -89.492188 21.453125 -75.265625 C 18.015625 -61.046875 14.65625 -46.742188 11.375 -32.359375 C 8.101562 -17.972656 5.109375 -4.707031 2.390625 7.4375 C 6.710938 -1.675781 11.148438 -9.90625 15.703125 -17.25 C 20.253906 -24.601562 24.804688 -30.316406 29.359375 -34.390625 C 33.921875 -38.472656 38.195312 -40.273438 42.1875 -39.796875 C 45.707031 -39.316406 48.304688 -37.554688 49.984375 -34.515625 C 51.660156 -31.484375 52.78125 -28.25 53.34375 -24.8125 C 53.90625 -21.375 54.1875 -18.859375 54.1875 -17.265625 C 54.664062 -11.347656 55.460938 -7.03125 56.578125 -4.3125 C 57.691406 -1.59375 58.8125 -0.15625 59.9375 0 C 60.25 0.15625 61.320312 -0.0390625 63.15625 -0.59375 C 65 -1.15625 67.71875 -2.953125 71.3125 -5.984375 C 74.914062 -9.023438 79.671875 -14.257812 85.578125 -21.6875 C 91.492188 -29.125 98.6875 -39.710938 107.15625 -53.453125 C 107.800781 -54.421875 108.757812 -55.0625 110.03125 -55.375 C 111.3125 -55.695312 112.515625 -55.539062 113.640625 -54.90625 Z M 64.484375 -214.078125 C 61.765625 -210.085938 58.128906 -203.015625 53.578125 -192.859375 C 49.023438 -182.710938 44.429688 -168.929688 39.796875 -151.515625 C 47.941406 -167.648438 53.894531 -180.910156 57.65625 -191.296875 C 61.414062 -201.691406 63.691406 -209.285156 64.484375 -214.078125 Z M 64.484375 -214.078125 "/></g></g></g><g fill="#ffffff" fill-opacity="1"><g transform="translate(691.510962, 456.878837)"><g/></g></g><g fill="#ffffff" fill-opacity="1"><g transform="translate(765.108032, 456.878837)"><g><path d="M 198.015625 -98.046875 C 204.253906 -90.378906 208.609375 -81.347656 211.078125 -70.953125 C 213.554688 -60.566406 214.113281 -49.5 212.75 -37.75 C 211.394531 -26.007812 208.082031 -14.144531 202.8125 -2.15625 C 194.976562 15.90625 184.066406 31.644531 170.078125 45.0625 C 156.097656 58.488281 139.757812 69.195312 121.0625 77.1875 C 102.363281 85.1875 81.988281 89.984375 59.9375 91.578125 C 59.9375 91.578125 59.851562 91.578125 59.6875 91.578125 C 56.8125 91.578125 55.296875 90.140625 55.140625 87.265625 C 54.984375 85.984375 55.34375 84.863281 56.21875 83.90625 C 57.09375 82.945312 58.09375 82.46875 59.21875 82.46875 C 80.15625 80.875 99.453125 76.316406 117.109375 68.796875 C 134.765625 61.285156 150.222656 51.21875 163.484375 38.59375 C 176.753906 25.96875 187.066406 11.1875 194.421875 -5.75 C 199.210938 -16.625 202.25 -27.414062 203.53125 -38.125 C 204.8125 -48.832031 204.375 -58.816406 202.21875 -68.078125 C 200.0625 -77.347656 196.265625 -85.421875 190.828125 -92.296875 C 181.878906 -103.328125 169.570312 -109.878906 153.90625 -111.953125 C 147.195312 -104.921875 139.566406 -98.007812 131.015625 -91.21875 C 122.460938 -84.425781 113.832031 -78.234375 105.125 -72.640625 C 96.414062 -67.046875 88.265625 -62.445312 80.671875 -58.84375 C 73.078125 -55.25 66.722656 -53.132812 61.609375 -52.5 C 58.097656 -35.238281 54.660156 -17.976562 51.296875 -0.71875 C 47.941406 16.539062 44.863281 32.84375 42.0625 48.1875 C 39.269531 63.53125 36.914062 77.273438 35 89.421875 C 33.082031 101.566406 31.722656 111.316406 30.921875 118.671875 C 31.242188 117.867188 31.566406 117.066406 31.890625 116.265625 C 32.367188 114.992188 33.207031 114.117188 34.40625 113.640625 C 35.601562 113.160156 36.84375 113.160156 38.125 113.640625 C 39.238281 114.117188 40.035156 114.957031 40.515625 116.15625 C 40.992188 117.351562 40.992188 118.507812 40.515625 119.625 C 37.953125 125.863281 35.753906 130.5 33.921875 133.53125 C 32.085938 136.570312 30.050781 138.09375 27.8125 138.09375 C 27.164062 138.09375 26.523438 137.929688 25.890625 137.609375 C 24.773438 137.285156 23.773438 136.441406 22.890625 135.078125 C 22.015625 133.722656 21.535156 131.007812 21.453125 126.9375 C 21.378906 122.863281 21.859375 116.710938 22.890625 108.484375 C 23.929688 100.253906 25.648438 89.1875 28.046875 75.28125 C 30.441406 61.375 33.632812 43.789062 37.625 22.53125 C 41.625 1.28125 46.660156 -24.445312 52.734375 -54.65625 C 51.941406 -55.300781 51.265625 -56.300781 50.703125 -57.65625 C 50.140625 -59.007812 50.097656 -60.804688 50.578125 -63.046875 C 52.179688 -68.804688 54.582031 -74.320312 57.78125 -79.59375 C 59.21875 -86.945312 60.734375 -94.5 62.328125 -102.25 C 63.929688 -110 65.53125 -118.03125 67.125 -126.34375 C 71.125 -145.84375 74.835938 -163.984375 78.265625 -180.765625 C 81.703125 -197.546875 84.539062 -212.085938 86.78125 -224.390625 C 79.269531 -222.472656 72.238281 -219.835938 65.6875 -216.484375 C 48.101562 -208.015625 35.632812 -196.144531 28.28125 -180.875 C 20.9375 -165.613281 19.34375 -148.394531 23.5 -129.21875 C 23.8125 -127.9375 23.609375 -126.773438 22.890625 -125.734375 C 22.171875 -124.703125 21.253906 -124.023438 20.140625 -123.703125 C 18.859375 -123.378906 17.65625 -123.578125 16.53125 -124.296875 C 15.414062 -125.015625 14.78125 -126.015625 14.625 -127.296875 C 9.832031 -148.710938 11.550781 -167.929688 19.78125 -184.953125 C 28.007812 -201.972656 41.953125 -215.28125 61.609375 -224.875 C 70.078125 -229.03125 79.109375 -232.144531 88.703125 -234.21875 C 88.859375 -235.019531 89.015625 -235.78125 89.171875 -236.5 C 89.335938 -237.21875 89.5 -237.976562 89.65625 -238.78125 C 89.820312 -240.050781 90.421875 -241.046875 91.453125 -241.765625 C 92.492188 -242.484375 93.65625 -242.6875 94.9375 -242.375 C 96.21875 -242.207031 97.21875 -241.601562 97.9375 -240.5625 C 98.65625 -239.53125 98.851562 -238.375 98.53125 -237.09375 C 98.53125 -236.9375 98.53125 -236.773438 98.53125 -236.609375 C 98.53125 -236.453125 98.53125 -236.296875 98.53125 -236.140625 C 109.238281 -237.578125 119.785156 -237.695312 130.171875 -236.5 C 140.566406 -235.300781 150 -232.78125 158.46875 -228.9375 C 166.9375 -225.101562 173.804688 -219.992188 179.078125 -213.609375 C 185.148438 -206.410156 188.625 -198.734375 189.5 -190.578125 C 190.382812 -182.429688 189.628906 -174.363281 187.234375 -166.375 C 184.835938 -158.382812 181.597656 -150.875 177.515625 -143.84375 C 173.441406 -136.8125 169.488281 -130.738281 165.65625 -125.625 C 164.375 -123.707031 162.851562 -121.789062 161.09375 -119.875 C 176.601562 -116.675781 188.910156 -109.398438 198.015625 -98.046875 Z M 63.53125 -62.09375 C 67.207031 -63.207031 72 -65.203125 77.90625 -68.078125 C 83.820312 -70.960938 90.457031 -74.640625 97.8125 -79.109375 C 105.164062 -83.585938 112.632812 -88.625 120.21875 -94.21875 C 127.8125 -99.8125 134.96875 -105.882812 141.6875 -112.4375 C 135.445312 -112.4375 128.894531 -111.71875 122.03125 -110.28125 C 115.3125 -109 108.4375 -106.878906 101.40625 -103.921875 C 94.375 -100.960938 87.820312 -97.207031 81.75 -92.65625 C 75.675781 -88.101562 70.5625 -82.628906 66.40625 -76.234375 C 65.925781 -73.835938 65.445312 -71.476562 64.96875 -69.15625 C 64.488281 -66.84375 64.007812 -64.488281 63.53125 -62.09375 Z M 150.3125 -121.546875 C 153.351562 -124.742188 156.070312 -127.941406 158.46875 -131.140625 C 170.132812 -146.960938 177.164062 -161.425781 179.5625 -174.53125 C 181.957031 -187.632812 179.476562 -198.660156 172.125 -207.609375 C 167.332031 -213.359375 160.976562 -217.910156 153.0625 -221.265625 C 145.15625 -224.628906 136.285156 -226.75 126.453125 -227.625 C 116.628906 -228.507812 106.679688 -228.070312 96.609375 -226.3125 C 94.367188 -214 91.453125 -199.09375 87.859375 -181.59375 C 84.265625 -164.09375 80.390625 -145.113281 76.234375 -124.65625 C 75.273438 -119.863281 74.273438 -114.988281 73.234375 -110.03125 C 72.203125 -105.082031 71.203125 -100.050781 70.234375 -94.9375 C 76.472656 -100.851562 83.867188 -105.882812 92.421875 -110.03125 C 100.972656 -114.1875 110.28125 -117.304688 120.34375 -119.390625 C 130.894531 -121.460938 140.882812 -122.179688 150.3125 -121.546875 Z M 150.3125 -121.546875 "/></g></g></g><g fill="#ffffff" fill-opacity="1"><g transform="translate(999.803458, 456.878837)"><g><path d="M 70.234375 -54.65625 C 71.359375 -54.019531 72.039062 -53.0625 72.28125 -51.78125 C 72.519531 -50.5 72.320312 -49.300781 71.6875 -48.1875 C 68.644531 -43.394531 64.804688 -38.039062 60.171875 -32.125 C 55.535156 -26.207031 50.5 -20.570312 45.0625 -15.21875 C 39.632812 -9.863281 34.242188 -5.425781 28.890625 -1.90625 C 23.535156 1.601562 18.617188 3.359375 14.140625 3.359375 C 12.222656 3.359375 10.546875 3.035156 9.109375 2.390625 C 3.671875 -0.00390625 0.671875 -5.796875 0.109375 -14.984375 C -0.441406 -24.171875 1.4375 -37.15625 5.75 -53.9375 C 6.070312 -55.21875 6.789062 -56.175781 7.90625 -56.8125 C 9.03125 -57.457031 10.148438 -57.617188 11.265625 -57.296875 C 12.546875 -56.972656 13.503906 -56.25 14.140625 -55.125 C 14.785156 -54.007812 14.945312 -52.894531 14.625 -51.78125 C 12.0625 -41.550781 10.460938 -33.4375 9.828125 -27.4375 C 9.191406 -21.445312 9.070312 -16.929688 9.46875 -13.890625 C 9.863281 -10.859375 10.460938 -8.820312 11.265625 -7.78125 C 12.066406 -6.75 12.546875 -6.234375 12.703125 -6.234375 C 14.785156 -5.273438 17.820312 -5.953125 21.8125 -8.265625 C 25.8125 -10.585938 30.285156 -14.023438 35.234375 -18.578125 C 40.191406 -23.128906 45.1875 -28.398438 50.21875 -34.390625 C 55.257812 -40.390625 59.773438 -46.664062 63.765625 -53.21875 C 64.566406 -54.34375 65.566406 -55.023438 66.765625 -55.265625 C 67.960938 -55.503906 69.117188 -55.300781 70.234375 -54.65625 Z M 13.671875 -73.84375 C 10.472656 -74 8.832031 -74.914062 8.75 -76.59375 C 8.664062 -78.269531 9.382812 -79.988281 10.90625 -81.75 C 12.425781 -83.507812 13.984375 -84.707031 15.578125 -85.34375 C 18.140625 -86.144531 20.019531 -85.984375 21.21875 -84.859375 C 22.414062 -83.742188 22.972656 -82.304688 22.890625 -80.546875 C 22.816406 -78.785156 22.019531 -77.1875 20.5 -75.75 C 18.976562 -74.3125 16.703125 -73.675781 13.671875 -73.84375 Z M 13.671875 -73.84375 "/></g></g></g><g fill="#ffffff" fill-opacity="1"><g transform="translate(1060.455059, 456.878837)"><g><path d="M 75.28125 -52.265625 C 76.070312 -51.304688 76.304688 -50.1875 75.984375 -48.90625 C 75.671875 -47.625 75.035156 -46.664062 74.078125 -46.03125 C 62.410156 -38.351562 50.703125 -30.117188 38.953125 -21.328125 C 27.210938 -12.546875 15.75 -2.476562 4.5625 8.875 C -4.875 65.125 -15.265625 110.910156 -26.609375 146.234375 C -28.847656 153.265625 -31.363281 160.492188 -34.15625 167.921875 C -36.957031 175.359375 -39.992188 182.3125 -43.265625 188.78125 C -46.546875 195.257812 -50.023438 200.734375 -53.703125 205.203125 C -57.378906 209.679688 -61.132812 212.484375 -64.96875 213.609375 C -66.25 213.921875 -67.445312 214.078125 -68.5625 214.078125 C -72.238281 214.078125 -75.4375 212.398438 -78.15625 209.046875 C -81.507812 204.890625 -83.703125 198.375 -84.734375 189.5 C -85.773438 180.632812 -85.578125 170.328125 -84.140625 158.578125 C -82.703125 146.835938 -79.90625 134.332031 -75.75 121.0625 C -71.59375 107.800781 -66.082031 94.535156 -59.21875 81.265625 C -51.0625 65.609375 -42.304688 51.425781 -32.953125 38.71875 C -23.609375 26.007812 -13.984375 14.539062 -4.078125 4.3125 C -0.398438 -17.414062 3.113281 -40.429688 6.46875 -64.734375 C 6.632812 -65.847656 7.195312 -66.800781 8.15625 -67.59375 C 9.113281 -68.394531 10.226562 -68.71875 11.5 -68.5625 C 12.78125 -68.40625 13.820312 -67.804688 14.625 -66.765625 C 15.425781 -65.722656 15.742188 -64.566406 15.578125 -63.296875 C 12.859375 -43.472656 10.0625 -24.53125 7.1875 -6.46875 C 17.257812 -15.894531 27.488281 -24.441406 37.875 -32.109375 C 48.257812 -39.785156 58.648438 -46.984375 69.046875 -53.703125 C 70.003906 -54.335938 71.117188 -54.535156 72.390625 -54.296875 C 73.671875 -54.054688 74.632812 -53.378906 75.28125 -52.265625 Z M -35.234375 143.359375 C -30.285156 127.703125 -25.410156 109.601562 -20.609375 89.0625 C -15.816406 68.519531 -11.265625 45.863281 -6.953125 21.09375 C -14.941406 30.039062 -22.648438 39.828125 -30.078125 50.453125 C -37.515625 61.085938 -44.507812 72.796875 -51.0625 85.578125 C -58.414062 99.648438 -64.007812 113.15625 -67.84375 126.09375 C -71.675781 139.039062 -74.113281 150.828125 -75.15625 161.453125 C -76.195312 172.085938 -76.273438 181.039062 -75.390625 188.3125 C -74.515625 195.582031 -73.039062 200.578125 -70.96875 203.296875 C -70.164062 204.097656 -69.523438 204.535156 -69.046875 204.609375 C -68.566406 204.691406 -68.085938 204.734375 -67.609375 204.734375 C -66.960938 204.578125 -65.757812 203.816406 -64 202.453125 C -62.25 201.097656 -59.929688 198.378906 -57.046875 194.296875 C -54.171875 190.222656 -50.894531 184.109375 -47.21875 175.953125 C -43.550781 167.804688 -39.554688 156.941406 -35.234375 143.359375 Z M 12.703125 -99.734375 C 9.503906 -99.890625 7.863281 -100.765625 7.78125 -102.359375 C 7.707031 -103.960938 8.425781 -105.601562 9.9375 -107.28125 C 11.457031 -108.957031 13.097656 -110.113281 14.859375 -110.75 C 17.253906 -111.550781 19.050781 -111.429688 20.25 -110.390625 C 21.457031 -109.359375 22.019531 -107.960938 21.9375 -106.203125 C 21.851562 -104.441406 21.050781 -102.878906 19.53125 -101.515625 C 18.019531 -100.160156 15.742188 -99.566406 12.703125 -99.734375 Z M 12.703125 -99.734375 "/></g></g></g><g fill="#ffffff" fill-opacity="1"><g transform="translate(1124.702603, 456.878837)"><g><path d="M 146.953125 -53.9375 C 147.753906 -53.132812 148.191406 -52.09375 148.265625 -50.8125 C 148.347656 -49.539062 147.910156 -48.425781 146.953125 -47.46875 C 139.441406 -39.789062 131.8125 -34.429688 124.0625 -31.390625 C 116.3125 -28.359375 109.160156 -27.804688 102.609375 -29.734375 C 99.734375 -30.691406 96.695312 -32.285156 93.5 -34.515625 C 90.300781 -36.753906 87.503906 -40.269531 85.109375 -45.0625 C 82.710938 -36.113281 79.992188 -27.566406 76.953125 -19.421875 C 73.597656 -10.628906 70.601562 -4.117188 67.96875 0.109375 C 65.332031 4.347656 62.972656 7.144531 60.890625 8.5 C 58.816406 9.863281 56.976562 10.546875 55.375 10.546875 C 52.5 10.546875 50.257812 9.46875 48.65625 7.3125 C 47.0625 5.15625 45.863281 2.796875 45.0625 0.234375 C 44.269531 -2.316406 43.710938 -4.3125 43.390625 -5.75 C 42.910156 -8.46875 42.507812 -11.664062 42.1875 -15.34375 C 36.757812 -6.875 32.40625 -0.523438 29.125 3.703125 C 25.851562 7.941406 22.9375 11.265625 20.375 13.671875 C 18.300781 15.742188 16.382812 17.140625 14.625 17.859375 C 12.863281 18.578125 11.265625 18.9375 9.828125 18.9375 C 8.710938 18.9375 7.675781 18.773438 6.71875 18.453125 C 5.757812 18.140625 5.039062 17.742188 4.5625 17.265625 C 0.5625 14.703125 -1.832031 9.1875 -2.625 0.71875 C -3.425781 -7.75 -2.707031 -18.132812 -0.46875 -30.4375 C 1.757812 -42.75 5.429688 -56.097656 10.546875 -70.484375 C 11.023438 -71.597656 11.820312 -72.4375 12.9375 -73 C 14.0625 -73.5625 15.265625 -73.601562 16.546875 -73.125 C 17.660156 -72.800781 18.492188 -72.039062 19.046875 -70.84375 C 19.609375 -69.644531 19.648438 -68.484375 19.171875 -67.359375 C 13.421875 -51.378906 9.707031 -37.832031 8.03125 -26.71875 C 6.351562 -15.613281 5.832031 -7.023438 6.46875 -0.953125 C 7.113281 5.117188 8.15625 8.632812 9.59375 9.59375 C 10.226562 10.070312 11.742188 9.191406 14.140625 6.953125 C 16.054688 5.191406 18.171875 2.832031 20.484375 -0.125 C 22.804688 -3.082031 25.6875 -7.113281 29.125 -12.21875 C 32.5625 -17.332031 36.914062 -24.046875 42.1875 -32.359375 C 43.3125 -34.273438 44.992188 -34.914062 47.234375 -34.28125 C 49.460938 -33.644531 50.578125 -32.128906 50.578125 -29.734375 C 50.578125 -26.847656 50.738281 -23.328125 51.0625 -19.171875 C 51.382812 -15.023438 51.863281 -11.113281 52.5 -7.4375 C 53.132812 -4.71875 53.691406 -2.71875 54.171875 -1.4375 C 54.660156 -0.15625 55.0625 0.722656 55.375 1.203125 C 56.976562 0.242188 58.9375 -2.472656 61.25 -6.953125 C 63.570312 -11.429688 65.96875 -16.863281 68.4375 -23.25 C 70.914062 -29.644531 73.15625 -36.359375 75.15625 -43.390625 C 77.15625 -50.421875 78.554688 -56.972656 79.359375 -63.046875 C 79.835938 -65.609375 81.351562 -66.890625 83.90625 -66.890625 C 86.46875 -67.046875 87.988281 -65.847656 88.46875 -63.296875 C 91.175781 -49.390625 96.769531 -41.15625 105.25 -38.59375 C 110.039062 -37.15625 115.550781 -37.796875 121.78125 -40.515625 C 128.019531 -43.234375 134.253906 -47.707031 140.484375 -53.9375 C 141.285156 -54.894531 142.320312 -55.375 143.59375 -55.375 C 144.875 -55.375 145.992188 -54.894531 146.953125 -53.9375 Z M 146.953125 -53.9375 "/></g></g></g><g fill="#ffffff" fill-opacity="1"><g transform="translate(1261.108792, 456.878837)"><g><path d="M 81.03125 -53.453125 C 82.144531 -52.816406 82.78125 -51.859375 82.9375 -50.578125 C 83.101562 -49.304688 82.867188 -48.191406 82.234375 -47.234375 C 72.796875 -34.117188 64.160156 -23.285156 56.328125 -14.734375 C 48.503906 -6.191406 40.675781 0.875 32.84375 6.46875 C 26.925781 10.625 21.09375 12.703125 15.34375 12.703125 C 10.863281 12.703125 6.945312 11.503906 3.59375 9.109375 C 1.351562 7.515625 -0.84375 4.675781 -3 0.59375 C -5.15625 -3.476562 -6.3125 -9.390625 -6.46875 -17.140625 C -6.632812 -24.890625 -4.71875 -35.078125 -0.71875 -47.703125 C -0.71875 -47.703125 -0.71875 -47.785156 -0.71875 -47.953125 C 4.070312 -63.296875 9.703125 -75 16.171875 -83.0625 C 22.648438 -91.132812 28.207031 -95.253906 32.84375 -95.421875 C 36.519531 -95.578125 38.914062 -93.976562 40.03125 -90.625 C 41.789062 -85.988281 39.710938 -79.394531 33.796875 -70.84375 C 27.890625 -62.289062 19.179688 -53.21875 7.671875 -43.625 C 4.148438 -32.4375 2.46875 -23.6875 2.625 -17.375 C 2.789062 -11.0625 3.671875 -6.503906 5.265625 -3.703125 C 6.867188 -0.910156 8.148438 0.878906 9.109375 1.671875 C 13.898438 5.191406 20.050781 4.234375 27.5625 -1.203125 C 34.914062 -6.316406 42.347656 -12.988281 49.859375 -21.21875 C 57.367188 -29.445312 65.601562 -39.875 74.5625 -52.5 C 75.351562 -53.457031 76.390625 -54.054688 77.671875 -54.296875 C 78.953125 -54.535156 80.070312 -54.253906 81.03125 -53.453125 Z M 31.171875 -85.34375 C 29.410156 -84.226562 27.007812 -81.867188 23.96875 -78.265625 C 20.9375 -74.671875 17.820312 -69.441406 14.625 -62.578125 C 20.375 -68.171875 24.445312 -72.921875 26.84375 -76.828125 C 29.25 -80.742188 30.691406 -83.582031 31.171875 -85.34375 Z M 31.171875 -85.34375 "/></g></g></g></svg>