<svg xmlns="http://www.w3.org/2000/svg" xmlns:xlink="http://www.w3.org/1999/xlink" width="1920" zoomAndPan="magnify" viewBox="0 0 1440 809.999993" height="1080" preserveAspectRatio="xMidYMid meet" version="1.0"><defs><g/></defs><g fill="#fff" fill-opacity="1"><g transform="translate(23.551353, 457.724034)"><g><path d="M 141.78125 -8.9375 C 142.476562 -6.488281 143.265625 -3.988281 144.140625 -1.4375 C 145.023438 1.101562 146.429688 3.597656 148.359375 6.046875 C 150.109375 4.296875 151.640625 2.453125 152.953125 0.515625 C 154.273438 -1.410156 155.460938 -3.335938 156.515625 -5.265625 C 170.546875 -31.390625 182.296875 -58.65625 191.765625 -87.0625 C 192.109375 -88.113281 192.457031 -89.34375 192.8125 -90.75 C 193.507812 -93.382812 195.175781 -94.347656 197.8125 -93.640625 C 198.6875 -93.296875 199.519531 -93.078125 200.3125 -92.984375 C 201.101562 -92.898438 201.9375 -92.769531 202.8125 -92.59375 C 205.96875 -91.894531 207.191406 -89.878906 206.484375 -86.546875 C 205.609375 -83.390625 204.6875 -80.1875 203.71875 -76.9375 C 202.757812 -73.695312 201.753906 -70.5 200.703125 -67.34375 C 196.671875 -55.9375 192.332031 -44.625 187.6875 -33.40625 C 183.039062 -22.1875 178.085938 -11.050781 172.828125 0 C 171.773438 2.101562 170.675781 4.160156 169.53125 6.171875 C 168.394531 8.191406 167.125 10.164062 165.71875 12.09375 C 162.039062 16.476562 157.304688 18.847656 151.515625 19.203125 C 144.148438 19.554688 137.703125 18.328125 132.171875 15.515625 C 126.648438 12.710938 122.050781 7.976562 118.375 1.3125 C 113.457031 -8.332031 109.242188 -18.148438 105.734375 -28.140625 C 102.234375 -38.140625 99.253906 -48.3125 96.796875 -58.65625 C 95.046875 -65.84375 93.554688 -73.03125 92.328125 -80.21875 C 91.097656 -87.414062 90.046875 -94.609375 89.171875 -101.796875 C 88.816406 -104.953125 88.332031 -106.835938 87.71875 -107.453125 C 87.113281 -108.066406 85.144531 -108.550781 81.8125 -108.90625 C 79.707031 -109.082031 77.644531 -109.253906 75.625 -109.421875 C 73.601562 -109.597656 71.539062 -109.773438 69.4375 -109.953125 C 66.457031 -110.304688 64.617188 -110.265625 63.921875 -109.828125 C 63.222656 -109.390625 62.347656 -107.765625 61.296875 -104.953125 C 57.609375 -94.785156 54.050781 -84.523438 50.625 -74.171875 C 47.207031 -63.828125 43.835938 -53.394531 40.515625 -42.875 C 38.578125 -36.5625 36.644531 -30.203125 34.71875 -23.796875 C 32.789062 -17.398438 30.773438 -10.957031 28.671875 -4.46875 C 27.796875 -1.3125 26.921875 1.492188 26.046875 3.953125 C 23.585938 10.265625 19.378906 11.753906 13.421875 8.421875 C 12.015625 7.546875 11.488281 6.492188 11.84375 5.265625 C 12.007812 4.390625 12.222656 3.46875 12.484375 2.5 C 12.753906 1.53125 12.976562 0.519531 13.15625 -0.53125 C 18.238281 -18.0625 23.5 -35.59375 28.9375 -53.125 C 34.375 -70.664062 40.421875 -88.03125 47.078125 -105.21875 C 47.253906 -105.75 47.472656 -106.316406 47.734375 -106.921875 C 48.003906 -107.535156 48.226562 -108.109375 48.40625 -108.640625 C 49.101562 -110.566406 48.3125 -111.707031 46.03125 -112.0625 C 37.789062 -113.289062 29.722656 -113.507812 21.828125 -112.71875 C 13.941406 -111.925781 6.316406 -109.335938 -1.046875 -104.953125 C -1.929688 -104.429688 -2.851562 -103.945312 -3.8125 -103.5 C -4.78125 -103.0625 -5.789062 -102.582031 -6.84375 -102.0625 C -8.945312 -101.007812 -11.003906 -100.523438 -13.015625 -100.609375 C -15.035156 -100.703125 -17.097656 -101.097656 -19.203125 -101.796875 C -22.359375 -102.671875 -22.882812 -104.335938 -20.78125 -106.796875 C -19.195312 -108.722656 -17.351562 -110.390625 -15.25 -111.796875 C -4.90625 -119.335938 6.578125 -123.546875 19.203125 -124.421875 C 23.941406 -124.773438 28.71875 -124.90625 33.53125 -124.8125 C 38.351562 -124.726562 43.222656 -124.25 48.140625 -123.375 C 51.992188 -122.84375 54.625 -124.332031 56.03125 -127.84375 C 61.113281 -141.519531 66.414062 -155.066406 71.9375 -168.484375 C 77.46875 -181.898438 82.597656 -195.445312 87.328125 -209.125 C 88.035156 -210.875 88.5625 -212.539062 88.90625 -214.125 C 90.3125 -218.332031 91.453125 -220.828125 92.328125 -221.609375 C 93.203125 -222.398438 95.832031 -222.796875 100.21875 -222.796875 C 104.601562 -222.796875 107.628906 -222.75 109.296875 -222.65625 C 110.960938 -222.570312 112.015625 -221.738281 112.453125 -220.15625 C 112.890625 -218.582031 113.285156 -215.519531 113.640625 -210.96875 C 114.867188 -196.40625 116.09375 -181.890625 117.3125 -167.421875 C 118.539062 -152.960938 119.769531 -138.539062 121 -124.15625 C 121 -123.632812 121.085938 -123.066406 121.265625 -122.453125 C 121.441406 -121.835938 121.53125 -121.175781 121.53125 -120.46875 C 121.707031 -117.144531 123.632812 -115.394531 127.3125 -115.21875 C 131.34375 -115.21875 135.421875 -115.128906 139.546875 -114.953125 C 143.671875 -114.773438 147.75 -114.863281 151.78125 -115.21875 C 153.175781 -115.394531 154.617188 -115.484375 156.109375 -115.484375 C 157.609375 -115.484375 159.054688 -115.128906 160.453125 -114.421875 C 161.335938 -113.898438 162.082031 -113.375 162.6875 -112.84375 C 163.300781 -112.320312 163.609375 -111.535156 163.609375 -110.484375 C 163.609375 -109.609375 163.300781 -108.945312 162.6875 -108.5 C 162.082031 -108.0625 161.425781 -107.671875 160.71875 -107.328125 C 159.84375 -106.796875 158.832031 -106.441406 157.6875 -106.265625 C 156.550781 -106.097656 155.457031 -105.925781 154.40625 -105.75 C 150.375 -105.039062 146.296875 -104.6875 142.171875 -104.6875 C 138.054688 -104.6875 133.976562 -104.773438 129.9375 -104.953125 C 126.957031 -104.953125 125.160156 -104.644531 124.546875 -104.03125 C 123.929688 -103.414062 123.800781 -101.617188 124.15625 -98.640625 C 126.257812 -83.554688 128.582031 -68.519531 131.125 -53.53125 C 133.664062 -38.539062 137.21875 -23.675781 141.78125 -8.9375 Z M 84.171875 -165.1875 C 81.367188 -158 78.609375 -150.851562 75.890625 -143.75 C 73.171875 -136.65625 70.410156 -129.507812 67.609375 -122.3125 C 70.234375 -121.257812 72.726562 -120.601562 75.09375 -120.34375 C 77.46875 -120.082031 79.796875 -119.953125 82.078125 -119.953125 C 84.523438 -119.773438 85.96875 -119.90625 86.40625 -120.34375 C 86.84375 -120.78125 86.976562 -122.316406 86.8125 -124.953125 C 86.28125 -130.734375 85.96875 -136.601562 85.875 -142.5625 C 85.789062 -148.53125 85.75 -154.492188 85.75 -160.453125 C 85.75 -161.160156 85.789062 -161.953125 85.875 -162.828125 C 85.96875 -163.703125 85.398438 -164.488281 84.171875 -165.1875 Z M 84.171875 -165.1875 "/></g></g></g><g fill="#fff" fill-opacity="1"><g transform="translate(209.782596, 457.724034)"><g><path d="M 36.5625 -24.71875 C 35.332031 -25.945312 34.0625 -27.304688 32.75 -28.796875 C 31.4375 -30.296875 29.726562 -31.65625 27.625 -32.875 C 27.269531 -28.84375 26.960938 -24.941406 26.703125 -21.171875 C 26.441406 -17.398438 26.132812 -13.765625 25.78125 -10.265625 C 25.78125 -7.804688 25.734375 -5.390625 25.640625 -3.015625 C 25.554688 -0.648438 25.515625 1.671875 25.515625 3.953125 C 25.691406 6.929688 24.203125 8.421875 21.046875 8.421875 C 19.992188 8.421875 18.984375 8.421875 18.015625 8.421875 C 17.054688 8.421875 16.050781 8.421875 15 8.421875 C 11.84375 8.421875 9.648438 8.375 8.421875 8.28125 C 7.191406 8.195312 6.359375 7.492188 5.921875 6.171875 C 5.484375 4.859375 4.910156 2.363281 4.203125 -1.3125 C 0.171875 -21.476562 -1.707031 -41.6875 -1.4375 -61.9375 C -1.175781 -82.195312 -0.519531 -102.5 0.53125 -122.84375 C 1.050781 -132.664062 1.707031 -142.441406 2.5 -152.171875 C 3.289062 -161.898438 4.300781 -171.585938 5.53125 -181.234375 C 5.695312 -183.335938 5.957031 -185.351562 6.3125 -187.28125 C 6.664062 -189.21875 7.015625 -191.148438 7.359375 -193.078125 C 7.890625 -195.878906 9.554688 -197.367188 12.359375 -197.546875 C 14.992188 -197.546875 17.582031 -197.71875 20.125 -198.0625 C 22.664062 -198.414062 25.253906 -198.59375 27.890625 -198.59375 C 31.046875 -198.59375 32.625 -196.929688 32.625 -193.609375 C 32.625 -188.171875 32.625 -182.644531 32.625 -177.03125 C 32.625 -171.414062 32.445312 -165.804688 32.09375 -160.203125 C 31.738281 -152.828125 31.382812 -145.410156 31.03125 -137.953125 C 30.6875 -130.503906 30.335938 -122.925781 29.984375 -115.21875 C 31.390625 -115.738281 32.398438 -116.476562 33.015625 -117.4375 C 33.628906 -118.40625 34.285156 -119.332031 34.984375 -120.21875 C 38.140625 -124.425781 41.554688 -128.457031 45.234375 -132.3125 C 48.921875 -136.164062 53.132812 -139.5 57.875 -142.3125 C 61.90625 -144.757812 66.066406 -146.550781 70.359375 -147.6875 C 74.660156 -148.832031 79.175781 -148.96875 83.90625 -148.09375 C 89.695312 -147.039062 94.34375 -144.539062 97.84375 -140.59375 C 101.351562 -136.65625 103.285156 -131.789062 103.640625 -126 C 103.816406 -121.613281 103.460938 -117.359375 102.578125 -113.234375 C 101.703125 -109.117188 100.128906 -105.046875 97.859375 -101.015625 C 92.765625 -92.242188 86.664062 -84.523438 79.5625 -77.859375 C 72.46875 -71.191406 64.097656 -65.84375 54.453125 -61.8125 C 51.992188 -60.757812 49.40625 -59.96875 46.6875 -59.4375 C 43.96875 -58.914062 40.941406 -58.304688 37.609375 -57.609375 C 41.816406 -52.691406 45.539062 -47.644531 48.78125 -42.46875 C 52.03125 -37.300781 55.757812 -32.613281 59.96875 -28.40625 C 69.613281 -18.414062 79.613281 -18.15625 89.96875 -27.625 C 92.238281 -29.726562 94.296875 -32.003906 96.140625 -34.453125 C 97.984375 -36.910156 99.691406 -39.539062 101.265625 -42.34375 C 104.953125 -48.65625 108.285156 -55.234375 111.265625 -62.078125 C 114.242188 -68.921875 117.226562 -75.757812 120.21875 -82.59375 C 121.96875 -86.457031 123.71875 -88.78125 125.46875 -89.5625 C 127.226562 -90.351562 130.035156 -90.132812 133.890625 -88.90625 C 136.171875 -88.207031 136.960938 -86.71875 136.265625 -84.4375 C 133.109375 -74.789062 129.46875 -65.320312 125.34375 -56.03125 C 121.21875 -46.738281 116 -38.054688 109.6875 -29.984375 C 103.375 -22.265625 95.960938 -16.867188 87.453125 -13.796875 C 78.953125 -10.734375 70.226562 -10.125 61.28125 -11.96875 C 52.34375 -13.8125 44.101562 -18.0625 36.5625 -24.71875 Z M 67.859375 -131.78125 C 59.617188 -124.414062 52.820312 -116.085938 47.46875 -106.796875 C 42.125 -97.503906 37.613281 -87.242188 33.9375 -76.015625 C 41.820312 -77.953125 48.742188 -80.628906 54.703125 -84.046875 C 60.671875 -87.460938 65.9375 -91.890625 70.5 -97.328125 C 73.300781 -100.835938 75.972656 -104.429688 78.515625 -108.109375 C 81.054688 -111.796875 82.769531 -115.914062 83.65625 -120.46875 C 84 -122.40625 84.257812 -124.335938 84.4375 -126.265625 C 84.613281 -128.191406 84.523438 -130.207031 84.171875 -132.3125 C 82.773438 -137.75 79.617188 -139.148438 74.703125 -136.515625 C 72.078125 -135.117188 69.796875 -133.539062 67.859375 -131.78125 Z M 67.859375 -131.78125 "/></g></g></g><g fill="#fff" fill-opacity="1"><g transform="translate(327.623807, 457.724034)"><g><path d="M 141.25 -73.65625 C 143.707031 -72.601562 145.066406 -71.722656 145.328125 -71.015625 C 145.597656 -70.316406 145.207031 -68.65625 144.15625 -66.03125 C 139.0625 -54.625 133.835938 -43.351562 128.484375 -32.21875 C 123.140625 -21.082031 117.578125 -9.992188 111.796875 1.046875 C 110.566406 3.503906 109.160156 5.957031 107.578125 8.40625 C 106.003906 10.863281 104.253906 13.144531 102.328125 15.25 C 98.816406 19.113281 94.601562 21.4375 89.6875 22.21875 C 84.78125 23.007812 80.046875 22.394531 75.484375 20.375 C 70.929688 18.363281 67.425781 15.078125 64.96875 10.515625 C 62.34375 5.429688 60.367188 0.128906 59.046875 -5.390625 C 57.734375 -10.910156 56.640625 -16.476562 55.765625 -22.09375 C 54.890625 -27.351562 54.316406 -32.566406 54.046875 -37.734375 C 53.785156 -42.910156 53.484375 -48.132812 53.140625 -53.40625 C 53.140625 -53.925781 53.140625 -54.582031 53.140625 -55.375 C 53.140625 -56.164062 52.695312 -56.910156 51.8125 -57.609375 C 50.414062 -54.972656 48.972656 -52.425781 47.484375 -49.96875 C 45.992188 -47.519531 44.457031 -44.976562 42.875 -42.34375 C 41.46875 -39.894531 39.929688 -37.53125 38.265625 -35.25 C 36.609375 -32.96875 34.8125 -30.6875 32.875 -28.40625 C 29.019531 -24.375 24.195312 -22.359375 18.40625 -22.359375 C 11.039062 -22.359375 5.957031 -25.691406 3.15625 -32.359375 C 1.75 -35.691406 0.695312 -39.109375 0 -42.609375 C -0.695312 -46.117188 -1.132812 -49.628906 -1.3125 -53.140625 C -1.664062 -60.679688 -1.316406 -68.046875 -0.265625 -75.234375 C 0.785156 -82.421875 2.800781 -89.4375 5.78125 -96.28125 C 9.289062 -104.34375 13.984375 -111.175781 19.859375 -116.78125 C 25.734375 -122.394531 33.226562 -126.082031 42.34375 -127.84375 C 45.5 -128.363281 48.523438 -128.445312 51.421875 -128.09375 C 54.316406 -127.75 57.253906 -127.226562 60.234375 -126.53125 C 61.992188 -126.175781 64.007812 -126.347656 66.28125 -127.046875 C 69.789062 -128.453125 73.429688 -129.109375 77.203125 -129.015625 C 80.972656 -128.929688 84.703125 -128.800781 88.390625 -128.625 C 89.265625 -128.625 89.875 -128.316406 90.21875 -127.703125 C 90.570312 -127.085938 90.835938 -126.429688 91.015625 -125.734375 C 91.535156 -124.160156 91.835938 -122.539062 91.921875 -120.875 C 92.015625 -119.207031 92.0625 -117.582031 92.0625 -116 C 91.882812 -101.96875 91.445312 -87.984375 90.75 -74.046875 C 90.050781 -60.109375 89.265625 -46.125 88.390625 -32.09375 C 88.035156 -26.832031 87.769531 -21.613281 87.59375 -16.4375 C 87.414062 -11.269531 87.414062 -6.054688 87.59375 -0.796875 C 87.59375 0.609375 87.679688 2.097656 87.859375 3.671875 C 88.035156 5.253906 88.472656 6.835938 89.171875 8.421875 C 90.578125 7.890625 91.671875 7.050781 92.453125 5.90625 C 93.242188 4.769531 93.992188 3.765625 94.703125 2.890625 C 98.910156 -3.242188 102.765625 -9.597656 106.265625 -16.171875 C 109.773438 -22.753906 113.195312 -29.375 116.53125 -36.03125 C 119.507812 -41.644531 122.359375 -47.300781 125.078125 -53 C 127.796875 -58.695312 130.554688 -64.351562 133.359375 -69.96875 C 134.765625 -72.769531 135.863281 -74.347656 136.65625 -74.703125 C 137.445312 -75.054688 138.976562 -74.707031 141.25 -73.65625 Z M 60.234375 -107.84375 C 60.585938 -111.53125 59.753906 -114.160156 57.734375 -115.734375 C 55.722656 -117.316406 52.960938 -117.671875 49.453125 -116.796875 C 48.046875 -116.265625 46.726562 -115.601562 45.5 -114.8125 C 44.28125 -114.03125 43.144531 -113.113281 42.09375 -112.0625 C 39.988281 -110.132812 38.144531 -108.070312 36.5625 -105.875 C 34.988281 -103.6875 33.5 -101.453125 32.09375 -99.171875 C 26.832031 -90.929688 23.148438 -82.296875 21.046875 -73.265625 C 18.941406 -64.234375 17.800781 -54.894531 17.625 -45.25 C 17.625 -44.539062 17.578125 -43.789062 17.484375 -43 C 17.398438 -42.21875 17.445312 -41.472656 17.625 -40.765625 C 17.800781 -39.191406 17.710938 -37.441406 17.359375 -35.515625 C 17.003906 -33.585938 17.96875 -32.359375 20.25 -31.828125 C 22.175781 -31.304688 23.664062 -31.875 24.71875 -33.53125 C 25.78125 -35.195312 26.660156 -36.734375 27.359375 -38.140625 C 33.316406 -47.960938 38.796875 -58.003906 43.796875 -68.265625 C 48.796875 -78.523438 53.578125 -88.828125 58.140625 -99.171875 C 59.191406 -101.796875 59.890625 -104.6875 60.234375 -107.84375 Z M 60.234375 -107.84375 "/></g></g></g><g fill="#fff" fill-opacity="1"><g transform="translate(463.088602, 457.724034)"><g><path d="M 26.046875 -114.953125 C 25.691406 -115.472656 25.335938 -116.039062 24.984375 -116.65625 C 24.640625 -117.269531 24.113281 -118.015625 23.40625 -118.890625 C 22.175781 -113.984375 21.164062 -109.25 20.375 -104.6875 C 19.59375 -100.132812 18.765625 -95.664062 17.890625 -91.28125 C 14.910156 -75.320312 11.050781 -59.671875 6.3125 -44.328125 C 1.570312 -28.984375 -3.863281 -13.859375 -10 1.046875 C -11.226562 4.378906 -12.453125 6.351562 -13.671875 6.96875 C -14.898438 7.582031 -17.003906 7.628906 -19.984375 7.109375 C -22.972656 6.578125 -24.023438 4.910156 -23.140625 2.109375 C -22.265625 -0.171875 -21.476562 -2.492188 -20.78125 -4.859375 C -20.082031 -7.234375 -19.289062 -9.644531 -18.40625 -12.09375 C -12.09375 -30.507812 -6.832031 -49.1875 -2.625 -68.125 C 1.582031 -87.0625 5.703125 -106.085938 9.734375 -125.203125 C 10.429688 -128.359375 11.128906 -131.515625 11.828125 -134.671875 C 12.535156 -137.835938 13.238281 -140.910156 13.9375 -143.890625 C 16.21875 -153.179688 21.128906 -155.019531 28.671875 -149.40625 C 33.929688 -145.375 38.140625 -140.816406 41.296875 -135.734375 C 47.609375 -125.554688 53.523438 -115.117188 59.046875 -104.421875 C 64.578125 -93.734375 69.179688 -82.597656 72.859375 -71.015625 C 73.910156 -68.035156 74.785156 -66.367188 75.484375 -66.015625 C 76.191406 -65.671875 78.125 -66.113281 81.28125 -67.34375 C 85.3125 -69.09375 89.253906 -70.929688 93.109375 -72.859375 C 96.972656 -74.785156 100.660156 -76.976562 104.171875 -79.4375 C 105.046875 -80.144531 105.960938 -80.800781 106.921875 -81.40625 C 107.890625 -82.019531 108.898438 -82.503906 109.953125 -82.859375 C 113.109375 -83.554688 115.210938 -82.679688 116.265625 -80.234375 C 116.796875 -79.179688 116.753906 -78.257812 116.140625 -77.46875 C 115.523438 -76.675781 114.863281 -75.929688 114.15625 -75.234375 C 111.175781 -73.128906 108.109375 -71.023438 104.953125 -68.921875 C 101.796875 -66.816406 98.550781 -64.972656 95.21875 -63.390625 C 93.46875 -62.515625 91.671875 -61.679688 89.828125 -60.890625 C 87.984375 -60.109375 86.1875 -59.363281 84.4375 -58.65625 C 80.925781 -57.425781 78.953125 -56.414062 78.515625 -55.625 C 78.078125 -54.84375 78.210938 -52.785156 78.921875 -49.453125 C 79.441406 -47.523438 79.832031 -45.550781 80.09375 -43.53125 C 80.363281 -41.519531 80.671875 -39.546875 81.015625 -37.609375 C 81.722656 -33.753906 81.898438 -29.941406 81.546875 -26.171875 C 81.191406 -22.398438 80.578125 -18.585938 79.703125 -14.734375 C 77.597656 -6.835938 73.039062 -0.609375 66.03125 3.953125 C 59.882812 8.160156 53.4375 10.613281 46.6875 11.3125 C 39.9375 12.007812 33.144531 11.132812 26.3125 8.6875 C 20.164062 6.582031 15.46875 3.25 12.21875 -1.3125 C 8.976562 -5.875 7.359375 -10.957031 7.359375 -16.5625 C 7.359375 -22.175781 9.203125 -27.613281 12.890625 -32.875 C 16.222656 -37.613281 20.125 -41.472656 24.59375 -44.453125 C 29.0625 -47.429688 33.84375 -50.0625 38.9375 -52.34375 C 41.914062 -53.75 43.972656 -54.890625 45.109375 -55.765625 C 46.253906 -56.640625 46.738281 -57.78125 46.5625 -59.1875 C 46.382812 -60.59375 45.859375 -62.785156 44.984375 -65.765625 C 42.347656 -74.179688 39.363281 -82.460938 36.03125 -90.609375 C 32.707031 -98.765625 29.378906 -106.878906 26.046875 -114.953125 Z M 52.078125 -7.109375 C 52.960938 -9.554688 53.578125 -12.050781 53.921875 -14.59375 C 54.273438 -17.132812 54.453125 -19.457031 54.453125 -21.5625 C 54.453125 -25.601562 54.144531 -29.332031 53.53125 -32.75 C 52.914062 -36.164062 52.171875 -39.539062 51.296875 -42.875 C 50.765625 -45.675781 49.359375 -46.46875 47.078125 -45.25 C 42.523438 -42.96875 38.40625 -40.25 34.71875 -37.09375 C 31.039062 -33.9375 28.238281 -29.898438 26.3125 -24.984375 C 24.726562 -20.429688 24.503906 -16.09375 25.640625 -11.96875 C 26.785156 -7.84375 29.195312 -4.378906 32.875 -1.578125 C 36.738281 1.222656 40.46875 2.097656 44.0625 1.046875 C 47.65625 -0.00390625 50.328125 -2.722656 52.078125 -7.109375 Z M 52.078125 -7.109375 "/></g></g></g><g fill="#fff" fill-opacity="1"><g transform="translate(566.725713, 457.724034)"><g><path d="M 32.625 -81.546875 C 32.96875 -81.546875 33.40625 -81.457031 33.9375 -81.28125 C 35.6875 -84.4375 37.4375 -87.59375 39.1875 -90.75 C 40.945312 -93.90625 42.789062 -96.972656 44.71875 -99.953125 C 46.644531 -103.285156 48.75 -106.484375 51.03125 -109.546875 C 53.3125 -112.617188 55.851562 -115.5625 58.65625 -118.375 C 60.414062 -120.125 62.390625 -121.742188 64.578125 -123.234375 C 66.765625 -124.722656 69.085938 -125.90625 71.546875 -126.78125 C 76.984375 -128.363281 81.9375 -128.054688 86.40625 -125.859375 C 90.882812 -123.671875 94 -119.859375 95.75 -114.421875 C 97.15625 -110.210938 98.078125 -105.875 98.515625 -101.40625 C 98.953125 -96.9375 99.171875 -92.421875 99.171875 -87.859375 C 99.347656 -78.910156 99.4375 -70.007812 99.4375 -61.15625 C 99.4375 -52.300781 99.4375 -43.398438 99.4375 -34.453125 C 99.4375 -29.191406 99.65625 -23.972656 100.09375 -18.796875 C 100.53125 -13.628906 101.273438 -8.503906 102.328125 -3.421875 C 102.671875 -1.671875 103.0625 0.0351562 103.5 1.703125 C 103.945312 3.367188 104.785156 4.992188 106.015625 6.578125 C 107.941406 5.523438 109.472656 4.117188 110.609375 2.359375 C 111.753906 0.609375 112.851562 -1.140625 113.90625 -2.890625 C 116.53125 -7.453125 118.894531 -12.097656 121 -16.828125 C 123.101562 -21.566406 125.207031 -26.304688 127.3125 -31.046875 C 130.46875 -38.578125 133.625 -46.023438 136.78125 -53.390625 C 139.9375 -60.765625 143.003906 -68.21875 145.984375 -75.75 C 146.691406 -77.332031 147.523438 -78.5625 148.484375 -79.4375 C 149.453125 -80.3125 150.988281 -80.398438 153.09375 -79.703125 C 156.25 -78.828125 158.046875 -78.035156 158.484375 -77.328125 C 158.921875 -76.628906 158.523438 -74.789062 157.296875 -71.8125 C 153.441406 -61.644531 149.671875 -51.429688 145.984375 -41.171875 C 142.304688 -30.910156 138.097656 -20.78125 133.359375 -10.78125 C 131.785156 -7.28125 130.03125 -3.90625 128.09375 -0.65625 C 126.164062 2.582031 123.976562 5.695312 121.53125 8.6875 C 118.019531 12.71875 114.160156 15.210938 109.953125 16.171875 C 105.742188 17.140625 101.269531 17.097656 96.53125 16.046875 C 94.257812 15.691406 92.375 14.769531 90.875 13.28125 C 89.382812 11.789062 88.113281 10.082031 87.0625 8.15625 C 85.3125 4.820312 84 1.359375 83.125 -2.234375 C 82.25 -5.828125 81.546875 -9.46875 81.015625 -13.15625 C 80.316406 -17.363281 79.832031 -21.570312 79.5625 -25.78125 C 79.300781 -29.988281 79.171875 -34.195312 79.171875 -38.40625 C 79.003906 -49.457031 78.832031 -60.503906 78.65625 -71.546875 C 78.476562 -82.597656 78.300781 -93.644531 78.125 -104.6875 C 78.125 -106.445312 78.164062 -108.332031 78.25 -110.34375 C 78.34375 -112.363281 77.160156 -113.632812 74.703125 -114.15625 C 72.597656 -114.6875 70.929688 -114.160156 69.703125 -112.578125 C 68.472656 -111.003906 67.421875 -109.425781 66.546875 -107.84375 C 58.835938 -95.925781 52 -83.609375 46.03125 -70.890625 C 40.070312 -58.171875 35.515625 -44.800781 32.359375 -30.78125 C 31.484375 -26.738281 30.648438 -22.703125 29.859375 -18.671875 C 29.066406 -14.640625 28.492188 -10.609375 28.140625 -6.578125 C 27.796875 -2.722656 25.601562 -0.53125 21.5625 0 C 20.34375 0 19.207031 0 18.15625 0 C 17.101562 0 15.960938 0 14.734375 0 C 9.648438 0 6.492188 -2.539062 5.265625 -7.625 C 4.210938 -11.65625 3.289062 -15.734375 2.5 -19.859375 C 1.707031 -23.984375 1.140625 -28.148438 0.796875 -32.359375 C -0.785156 -45.503906 -1.53125 -58.65625 -1.4375 -71.8125 C -1.351562 -84.96875 -0.875 -98.03125 0 -111 C 2.28125 -140.8125 6.398438 -170.273438 12.359375 -199.390625 C 13.410156 -204.472656 14.375 -208.066406 15.25 -210.171875 C 16.132812 -212.273438 17.671875 -213.546875 19.859375 -213.984375 C 22.046875 -214.421875 25.6875 -214.640625 30.78125 -214.640625 C 36.039062 -214.640625 39.109375 -214.203125 39.984375 -213.328125 C 40.859375 -212.453125 41.207031 -209.5625 41.03125 -204.65625 C 40.507812 -195.007812 39.941406 -185.363281 39.328125 -175.71875 C 38.710938 -166.070312 38.140625 -156.425781 37.609375 -146.78125 C 36.734375 -135.90625 35.898438 -125.03125 35.109375 -114.15625 C 34.328125 -103.289062 33.5 -92.421875 32.625 -81.546875 Z M 32.625 -81.546875 "/></g></g></g><g fill="#fff" fill-opacity="1"><g transform="translate(706.662193, 457.724034)"><g/></g></g><g fill="#fff" fill-opacity="1"><g transform="translate(789.256233, 457.724034)"><g><path d="M 117.578125 -95.484375 C 117.578125 -95.484375 117.578125 -95.523438 117.578125 -95.609375 C 117.578125 -95.703125 117.578125 -95.75 117.578125 -95.75 C 121.265625 -96.800781 124.992188 -97.71875 128.765625 -98.5 C 132.535156 -99.289062 136.347656 -99.425781 140.203125 -98.90625 C 146.867188 -98.207031 152.695312 -96.320312 157.6875 -93.25 C 162.6875 -90.175781 166.328125 -85.3125 168.609375 -78.65625 C 169.660156 -75.84375 171.503906 -74.960938 174.140625 -76.015625 C 178.691406 -78.117188 183.335938 -80.132812 188.078125 -82.0625 C 192.816406 -84 197.550781 -85.929688 202.28125 -87.859375 C 203.507812 -88.378906 204.648438 -88.679688 205.703125 -88.765625 C 206.753906 -88.859375 207.628906 -88.117188 208.328125 -86.546875 C 209.554688 -84.441406 210.039062 -82.90625 209.78125 -81.9375 C 209.519531 -80.976562 208.335938 -80.054688 206.234375 -79.171875 C 201.316406 -76.890625 196.359375 -74.65625 191.359375 -72.46875 C 186.367188 -70.28125 181.328125 -68.132812 176.234375 -66.03125 C 173.609375 -65.144531 171.460938 -63.910156 169.796875 -62.328125 C 168.128906 -60.753906 166.769531 -58.566406 165.71875 -55.765625 C 162.5625 -48.046875 158.441406 -40.984375 153.359375 -34.578125 C 148.273438 -28.179688 142.660156 -22.265625 136.515625 -16.828125 C 127.398438 -8.765625 117.535156 -1.972656 106.921875 3.546875 C 96.316406 9.078125 85.140625 13.421875 73.390625 16.578125 C 71.285156 17.273438 69.398438 18.0625 67.734375 18.9375 C 66.066406 19.8125 65.410156 21.65625 65.765625 24.46875 C 66.109375 26.75 64.878906 27.890625 62.078125 27.890625 C 59.453125 27.890625 56.910156 27.890625 54.453125 27.890625 C 51.992188 27.890625 49.535156 27.890625 47.078125 27.890625 C 44.453125 27.890625 43.050781 26.832031 42.875 24.71875 C 42.875 22.789062 42.300781 21.609375 41.15625 21.171875 C 40.019531 20.734375 38.753906 20.335938 37.359375 19.984375 C 34.898438 19.640625 32.441406 19.203125 29.984375 18.671875 C 27.535156 18.148438 25.171875 17.363281 22.890625 16.3125 C 11.835938 11.394531 9.992188 4.113281 17.359375 -5.53125 C 21.742188 -11.132812 27.179688 -15.78125 33.671875 -19.46875 C 36.128906 -20.695312 37.707031 -22.144531 38.40625 -23.8125 C 39.101562 -25.476562 39.363281 -27.625 39.1875 -30.25 C 38.3125 -53.75 38.488281 -77.160156 39.71875 -100.484375 C 40.945312 -123.804688 43.488281 -147.039062 47.34375 -170.1875 C 48.050781 -175.101562 49.015625 -179.972656 50.234375 -184.796875 C 51.460938 -189.617188 52.957031 -194.394531 54.71875 -199.125 C 55.945312 -201.925781 56.953125 -203.585938 57.734375 -204.109375 C 58.523438 -204.640625 60.410156 -204.90625 63.390625 -204.90625 C 64.796875 -204.90625 66.242188 -204.863281 67.734375 -204.78125 C 69.222656 -204.695312 70.757812 -204.65625 72.34375 -204.65625 C 75.320312 -204.476562 77.03125 -204.125 77.46875 -203.59375 C 77.90625 -203.070312 78.035156 -201.40625 77.859375 -198.59375 C 77.503906 -194.039062 77.109375 -189.484375 76.671875 -184.921875 C 76.234375 -180.359375 75.84375 -175.800781 75.5 -171.25 C 74.789062 -164.9375 74.171875 -158.664062 73.640625 -152.4375 C 73.117188 -146.207031 72.507812 -139.9375 71.8125 -133.625 C 71.8125 -133.101562 71.8125 -132.625 71.8125 -132.1875 C 71.8125 -131.75 71.988281 -131.265625 72.34375 -130.734375 C 73.5625 -131.429688 74.390625 -132.347656 74.828125 -133.484375 C 75.273438 -134.628906 75.757812 -135.726562 76.28125 -136.78125 C 81.539062 -145.726562 87.28125 -154.273438 93.5 -162.421875 C 99.726562 -170.578125 106.703125 -178.078125 114.421875 -184.921875 C 116.878906 -187.203125 119.421875 -189.257812 122.046875 -191.09375 C 124.679688 -192.9375 127.488281 -194.5625 130.46875 -195.96875 C 131.519531 -196.5 132.613281 -196.984375 133.75 -197.421875 C 134.894531 -197.859375 136.082031 -198.25 137.3125 -198.59375 C 145.550781 -200.53125 152.082031 -199.257812 156.90625 -194.78125 C 161.726562 -190.3125 163.4375 -183.867188 162.03125 -175.453125 C 161.332031 -171.765625 160.320312 -168.164062 159 -164.65625 C 157.6875 -161.15625 156.242188 -157.738281 154.671875 -154.40625 C 150.285156 -145.113281 145.242188 -136.171875 139.546875 -127.578125 C 133.847656 -118.984375 127.929688 -110.566406 121.796875 -102.328125 C 120.910156 -101.273438 119.984375 -100.265625 119.015625 -99.296875 C 118.054688 -98.335938 117.578125 -97.066406 117.578125 -95.484375 Z M 73.125 -82.859375 C 72.070312 -79.878906 71.148438 -76.851562 70.359375 -73.78125 C 69.578125 -70.71875 69.097656 -67.609375 68.921875 -64.453125 C 69.796875 -64.453125 70.40625 -64.625 70.75 -64.96875 C 71.101562 -65.320312 71.367188 -65.675781 71.546875 -66.03125 C 79.960938 -77.25 88.421875 -88.425781 96.921875 -99.5625 C 105.429688 -110.695312 113.457031 -122.140625 121 -133.890625 C 129.59375 -147.566406 136.519531 -162.035156 141.78125 -177.296875 C 142.3125 -178.867188 142.878906 -180.578125 143.484375 -182.421875 C 144.097656 -184.265625 143.617188 -185.800781 142.046875 -187.03125 C 140.296875 -188.425781 138.585938 -188.507812 136.921875 -187.28125 C 135.253906 -186.0625 133.71875 -184.925781 132.3125 -183.875 C 128.976562 -181.414062 125.953125 -178.648438 123.234375 -175.578125 C 120.515625 -172.515625 117.84375 -169.492188 115.21875 -166.515625 C 104.863281 -154.234375 96.398438 -141.035156 89.828125 -126.921875 C 83.253906 -112.804688 77.6875 -98.117188 73.125 -82.859375 Z M 99.953125 -70.234375 C 94.347656 -65.671875 89.132812 -60.628906 84.3125 -55.109375 C 79.488281 -49.585938 74.882812 -43.753906 70.5 -37.609375 C 71.195312 -37.609375 71.765625 -37.609375 72.203125 -37.609375 C 72.640625 -37.609375 73.035156 -37.695312 73.390625 -37.875 C 84.960938 -41.90625 96.445312 -46.023438 107.84375 -50.234375 C 119.25 -54.453125 130.648438 -58.835938 142.046875 -63.390625 C 145.554688 -64.796875 147.3125 -67.164062 147.3125 -70.5 C 147.3125 -71.550781 147.3125 -72.644531 147.3125 -73.78125 C 147.3125 -74.925781 147.222656 -76.023438 147.046875 -77.078125 C 146.335938 -81.984375 144.40625 -85.441406 141.25 -87.453125 C 138.09375 -89.472656 134.148438 -89.785156 129.421875 -88.390625 C 128.015625 -88.035156 126.65625 -87.550781 125.34375 -86.9375 C 124.03125 -86.320312 122.671875 -85.664062 121.265625 -84.96875 C 117.410156 -83.039062 113.769531 -80.757812 110.34375 -78.125 C 106.925781 -75.488281 103.460938 -72.859375 99.953125 -70.234375 Z M 136.265625 -44.453125 C 136.785156 -45.328125 137.351562 -46.113281 137.96875 -46.8125 C 138.582031 -47.519531 138.710938 -48.488281 138.359375 -49.71875 C 137.484375 -49.894531 136.648438 -49.804688 135.859375 -49.453125 C 135.078125 -49.097656 134.332031 -48.75 133.625 -48.40625 C 124.332031 -44.71875 115.125 -41.03125 106 -37.34375 C 96.882812 -33.664062 87.769531 -29.988281 78.65625 -26.3125 C 77.25 -25.78125 75.84375 -25.207031 74.4375 -24.59375 C 73.039062 -23.976562 71.640625 -23.410156 70.234375 -22.890625 C 67.253906 -21.835938 65.851562 -19.554688 66.03125 -16.046875 C 66.03125 -13.410156 66.03125 -10.820312 66.03125 -8.28125 C 66.03125 -5.738281 66.03125 -3.15625 66.03125 -0.53125 C 66.03125 2.625 66.378906 4.460938 67.078125 4.984375 C 67.773438 5.515625 69.53125 5.253906 72.34375 4.203125 C 99 -5.609375 120.304688 -21.828125 136.265625 -44.453125 Z M 41.03125 6.046875 C 40.851562 4.648438 40.765625 3.203125 40.765625 1.703125 C 40.765625 0.210938 40.238281 -1.226562 39.1875 -2.625 C 36.207031 -0.695312 34.804688 2.191406 34.984375 6.046875 C 34.984375 8.328125 36.300781 9.46875 38.9375 9.46875 C 40.332031 9.644531 41.03125 9.296875 41.03125 8.421875 C 41.03125 7.546875 41.03125 6.753906 41.03125 6.046875 Z M 41.03125 6.046875 "/></g></g></g><g fill="#fff" fill-opacity="1"><g transform="translate(989.954556, 457.724034)"><g><path d="M 77.328125 -77.078125 C 79.441406 -76.191406 80.453125 -75.09375 80.359375 -73.78125 C 80.273438 -72.46875 79.878906 -71.109375 79.171875 -69.703125 C 76.015625 -62.335938 72.8125 -54.882812 69.5625 -47.34375 C 66.320312 -39.800781 63.039062 -32.257812 59.71875 -24.71875 C 58.664062 -22.445312 57.613281 -20.210938 56.5625 -18.015625 C 55.507812 -15.828125 54.367188 -13.59375 53.140625 -11.3125 C 50.148438 -6.226562 45.984375 -2.71875 40.640625 -0.78125 C 35.296875 1.144531 29.816406 1.492188 24.203125 0.265625 C 18.585938 -0.960938 14.023438 -3.945312 10.515625 -8.6875 C 8.242188 -11.664062 6.445312 -14.816406 5.125 -18.140625 C 3.8125 -21.472656 2.71875 -24.894531 1.84375 -28.40625 C 0.4375 -33.84375 -0.484375 -39.367188 -0.921875 -44.984375 C -1.359375 -50.597656 -1.488281 -55.859375 -1.3125 -60.765625 C -1.488281 -71.640625 -0.832031 -82.070312 0.65625 -92.0625 C 2.144531 -102.0625 4.207031 -111.972656 6.84375 -121.796875 C 7.019531 -122.847656 7.328125 -123.898438 7.765625 -124.953125 C 8.203125 -126.003906 8.59375 -127.054688 8.9375 -128.109375 C 9.820312 -130.554688 11.488281 -131.695312 13.9375 -131.53125 C 14.46875 -131.53125 14.90625 -131.53125 15.25 -131.53125 C 15.601562 -131.53125 15.957031 -131.53125 16.3125 -131.53125 C 21.570312 -131.351562 24.679688 -130.78125 25.640625 -129.8125 C 26.609375 -128.84375 26.832031 -125.816406 26.3125 -120.734375 C 25.601562 -110.210938 24.894531 -99.78125 24.1875 -89.4375 C 23.488281 -79.09375 23.316406 -68.742188 23.671875 -58.390625 C 23.847656 -52.609375 24.023438 -46.867188 24.203125 -41.171875 C 24.378906 -35.472656 24.992188 -29.816406 26.046875 -24.203125 C 26.390625 -21.921875 26.910156 -19.726562 27.609375 -17.625 C 28.316406 -15.519531 29.195312 -13.503906 30.25 -11.578125 C 32.53125 -7.546875 34.898438 -7.367188 37.359375 -11.046875 C 38.410156 -12.453125 39.328125 -13.941406 40.109375 -15.515625 C 40.898438 -17.097656 41.734375 -18.675781 42.609375 -20.25 C 46.992188 -28.664062 51.332031 -37.125 55.625 -45.625 C 59.925781 -54.132812 64.269531 -62.597656 68.65625 -71.015625 C 68.832031 -71.546875 69.050781 -72.03125 69.3125 -72.46875 C 69.570312 -72.90625 69.789062 -73.390625 69.96875 -73.921875 C 71.195312 -76.191406 72.203125 -77.457031 72.984375 -77.71875 C 73.773438 -77.988281 75.222656 -77.773438 77.328125 -77.078125 Z M 22.09375 -145.46875 C 14.726562 -145.289062 10.957031 -148.179688 10.78125 -154.140625 C 10.601562 -157.472656 11.566406 -160.320312 13.671875 -162.6875 C 15.773438 -165.0625 18.320312 -166.25 21.3125 -166.25 C 24.988281 -166.25 27.921875 -165.367188 30.109375 -163.609375 C 32.304688 -161.859375 33.40625 -159.40625 33.40625 -156.25 C 33.40625 -149.238281 29.632812 -145.644531 22.09375 -145.46875 Z M 22.09375 -145.46875 "/></g></g></g><g fill="#fff" fill-opacity="1"><g transform="translate(1060.185824, 457.724034)"><g><path d="M 65.5 -61.03125 C 66.019531 -59.976562 66.28125 -59.007812 66.28125 -58.125 C 66.28125 -57.25 65.753906 -56.460938 64.703125 -55.765625 C 63.828125 -55.242188 62.953125 -54.757812 62.078125 -54.3125 C 61.203125 -53.875 60.328125 -53.394531 59.453125 -52.875 C 55.421875 -50.769531 51.382812 -48.617188 47.34375 -46.421875 C 43.3125 -44.234375 39.28125 -42.175781 35.25 -40.25 C 30.507812 -38.144531 28.140625 -34.550781 28.140625 -29.46875 C 27.796875 -13.332031 24.289062 2.273438 17.625 17.359375 C 15.875 21.390625 13.8125 25.289062 11.4375 29.0625 C 9.070312 32.832031 6.3125 36.296875 3.15625 39.453125 C -4.738281 47.347656 -14.207031 51.734375 -25.25 52.609375 C -31.039062 52.960938 -35.773438 51.910156 -39.453125 49.453125 C -43.140625 46.992188 -45.945312 43.878906 -47.875 40.109375 C -49.800781 36.335938 -50.851562 32.523438 -51.03125 28.671875 C -51.382812 23.585938 -50.859375 18.804688 -49.453125 14.328125 C -48.046875 9.859375 -46.117188 5.429688 -43.671875 1.046875 C -40.160156 -4.734375 -35.90625 -9.816406 -30.90625 -14.203125 C -25.90625 -18.585938 -20.425781 -22.445312 -14.46875 -25.78125 C -12.882812 -26.65625 -11.347656 -27.53125 -9.859375 -28.40625 C -8.367188 -29.28125 -6.835938 -29.984375 -5.265625 -30.515625 C -1.929688 -31.921875 -0.265625 -34.640625 -0.265625 -38.671875 C -0.785156 -56.554688 -1.132812 -74.617188 -1.3125 -92.859375 C -1.488281 -98.117188 -1.488281 -103.332031 -1.3125 -108.5 C -1.132812 -113.675781 -1.046875 -118.894531 -1.046875 -124.15625 C -1.046875 -126.082031 -0.65625 -127.570312 0.125 -128.625 C 0.914062 -129.675781 2.273438 -130.289062 4.203125 -130.46875 C 9.640625 -131 13.28125 -131.304688 15.125 -131.390625 C 16.96875 -131.484375 18.109375 -130.695312 18.546875 -129.03125 C 18.984375 -127.363281 19.726562 -124.160156 20.78125 -119.421875 C 22.707031 -109.253906 24.195312 -99.082031 25.25 -88.90625 C 26.300781 -78.738281 27.09375 -68.484375 27.625 -58.140625 C 27.800781 -56.378906 27.929688 -54.617188 28.015625 -52.859375 C 28.097656 -51.109375 28.664062 -49.179688 29.71875 -47.078125 C 34.457031 -49.015625 38.972656 -51.117188 43.265625 -53.390625 C 47.566406 -55.671875 51.820312 -57.863281 56.03125 -59.96875 C 57.257812 -60.675781 58.75 -61.554688 60.5 -62.609375 C 62.425781 -63.835938 64.09375 -63.3125 65.5 -61.03125 Z M -1.046875 -16.3125 C -1.046875 -17.1875 -1.046875 -18.0625 -1.046875 -18.9375 C -1.046875 -19.8125 -1.488281 -20.773438 -2.375 -21.828125 C -11.3125 -17.273438 -18.976562 -11.707031 -25.375 -5.125 C -31.78125 1.445312 -35.859375 10.082031 -37.609375 20.78125 C -38.140625 24.46875 -37.921875 27.929688 -36.953125 31.171875 C -35.992188 34.410156 -34.550781 37.4375 -32.625 40.25 C -30.863281 43.050781 -28.710938 44.539062 -26.171875 44.71875 C -23.628906 44.894531 -21.128906 43.929688 -18.671875 41.828125 C -17.617188 40.773438 -16.695312 39.632812 -15.90625 38.40625 C -15.125 37.175781 -14.378906 35.859375 -13.671875 34.453125 C -10.171875 26.390625 -7.367188 18.101562 -5.265625 9.59375 C -3.160156 1.09375 -1.753906 -7.539062 -1.046875 -16.3125 Z M 3.421875 -148.359375 C -4.816406 -147.484375 -9.726562 -149.675781 -11.3125 -154.9375 C -12.007812 -157.21875 -11.65625 -159.71875 -10.25 -162.4375 C -8.851562 -165.15625 -6.753906 -167.390625 -3.953125 -169.140625 C -1.316406 -170.710938 1.75 -171.367188 5.25 -171.109375 C 8.757812 -170.847656 11.65625 -169.664062 13.9375 -167.5625 C 16.394531 -165.632812 17.664062 -163.222656 17.75 -160.328125 C 17.84375 -157.429688 16.660156 -155.019531 14.203125 -153.09375 C 10.867188 -150.289062 7.273438 -148.710938 3.421875 -148.359375 Z M 3.421875 -148.359375 "/></g></g></g><g fill="#fff" fill-opacity="1"><g transform="translate(1122.262935, 457.724034)"><g><path d="M 67.609375 -51.5625 C 67.429688 -52.257812 67.296875 -53.085938 67.203125 -54.046875 C 67.117188 -55.015625 66.550781 -56.289062 65.5 -57.875 C 64.269531 -53.3125 63.171875 -49.054688 62.203125 -45.109375 C 61.242188 -41.160156 60.238281 -37.347656 59.1875 -33.671875 C 57.257812 -26.484375 55.242188 -19.378906 53.140625 -12.359375 C 51.035156 -5.347656 48.488281 1.488281 45.5 8.15625 C 43.226562 13.414062 40.554688 16.832031 37.484375 18.40625 C 34.410156 19.988281 29.984375 20.429688 24.203125 19.734375 C 18.585938 19.023438 14.378906 16.039062 11.578125 10.78125 C 8.765625 5 6.484375 -0.914062 4.734375 -6.96875 C 2.984375 -13.019531 1.671875 -19.203125 0.796875 -25.515625 C -1.484375 -41.648438 -2.097656 -57.738281 -1.046875 -73.78125 C 0.00390625 -89.832031 2.457031 -105.75 6.3125 -121.53125 C 6.488281 -122.40625 6.707031 -123.234375 6.96875 -124.015625 C 7.226562 -124.804688 7.535156 -125.644531 7.890625 -126.53125 C 8.585938 -129.863281 10.691406 -131.53125 14.203125 -131.53125 C 15.609375 -131.53125 16.96875 -131.570312 18.28125 -131.65625 C 19.59375 -131.738281 20.953125 -131.78125 22.359375 -131.78125 C 25.867188 -131.957031 28.148438 -131.519531 29.203125 -130.46875 C 30.253906 -129.414062 30.601562 -127.222656 30.25 -123.890625 C 30.070312 -119.503906 29.765625 -115.160156 29.328125 -110.859375 C 28.890625 -106.566406 28.582031 -102.234375 28.40625 -97.859375 C 27.882812 -83.648438 27.625 -69.398438 27.625 -55.109375 C 27.625 -40.816406 28.675781 -26.566406 30.78125 -12.359375 C 31.125 -10.785156 31.425781 -8.988281 31.6875 -6.96875 C 31.957031 -4.957031 32.96875 -3.863281 34.71875 -3.6875 C 36.820312 -3.507812 38.050781 -4.425781 38.40625 -6.4375 C 38.757812 -8.457031 39.109375 -10.257812 39.453125 -11.84375 C 44.367188 -28.851562 49.191406 -45.90625 53.921875 -63 C 58.660156 -80.09375 62.78125 -97.320312 66.28125 -114.6875 C 66.8125 -117.488281 67.46875 -119.195312 68.25 -119.8125 C 69.039062 -120.425781 70.753906 -120.820312 73.390625 -121 C 78.128906 -121.175781 81.632812 -120.957031 83.90625 -120.34375 C 86.1875 -119.726562 87.722656 -118.320312 88.515625 -116.125 C 89.304688 -113.9375 89.875 -110.476562 90.21875 -105.75 C 91.269531 -92.070312 93.15625 -78.566406 95.875 -65.234375 C 98.59375 -51.910156 101.796875 -38.671875 105.484375 -25.515625 C 106.003906 -23.585938 106.660156 -21.613281 107.453125 -19.59375 C 108.242188 -17.582031 108.988281 -15.609375 109.6875 -13.671875 C 110.394531 -12.273438 111.1875 -10.875 112.0625 -9.46875 C 112.9375 -8.0625 114.335938 -7.445312 116.265625 -7.625 C 118.191406 -7.625 119.679688 -8.191406 120.734375 -9.328125 C 121.785156 -10.472656 122.664062 -11.835938 123.375 -13.421875 C 124.25 -15.347656 125.164062 -17.316406 126.125 -19.328125 C 127.09375 -21.347656 127.925781 -23.410156 128.625 -25.515625 C 131.082031 -32.878906 133.054688 -40.332031 134.546875 -47.875 C 136.035156 -55.414062 137.132812 -63.046875 137.84375 -70.765625 C 138.1875 -74.796875 136.78125 -78.210938 133.625 -81.015625 C 127.664062 -86.804688 122.664062 -93.207031 118.625 -100.21875 C 114.59375 -107.238281 111.703125 -114.957031 109.953125 -123.375 C 109.429688 -126.53125 109.171875 -129.6875 109.171875 -132.84375 C 109.171875 -136 109.695312 -139.15625 110.75 -142.3125 C 112.675781 -148.09375 116.269531 -152.300781 121.53125 -154.9375 C 125.5625 -157.039062 129.59375 -157.429688 133.625 -156.109375 C 137.65625 -154.796875 140.988281 -152.125 143.625 -148.09375 C 145.726562 -144.582031 147.394531 -140.898438 148.625 -137.046875 C 149.851562 -133.191406 150.816406 -129.160156 151.515625 -124.953125 C 152.390625 -119.515625 153.046875 -114.03125 153.484375 -108.5 C 153.921875 -102.976562 154.140625 -97.410156 154.140625 -91.796875 C 154.140625 -87.765625 154.707031 -84.914062 155.84375 -83.25 C 156.988281 -81.582031 159.40625 -80.398438 163.09375 -79.703125 C 167.820312 -78.648438 172.640625 -77.816406 177.546875 -77.203125 C 182.460938 -76.585938 187.460938 -76.628906 192.546875 -77.328125 C 193.078125 -77.328125 193.648438 -77.367188 194.265625 -77.453125 C 194.878906 -77.546875 195.535156 -77.59375 196.234375 -77.59375 C 197.640625 -77.769531 198.910156 -77.726562 200.046875 -77.46875 C 201.179688 -77.207031 201.835938 -76.023438 202.015625 -73.921875 C 202.191406 -71.640625 201.972656 -70.015625 201.359375 -69.046875 C 200.742188 -68.085938 199.382812 -67.429688 197.28125 -67.078125 C 192.375 -66.378906 187.507812 -66.070312 182.6875 -66.15625 C 177.863281 -66.238281 173.082031 -66.722656 168.34375 -67.609375 C 166.414062 -67.953125 164.53125 -68.253906 162.6875 -68.515625 C 160.851562 -68.785156 159.054688 -69.09375 157.296875 -69.4375 C 154.492188 -70.144531 152.914062 -68.921875 152.5625 -65.765625 C 151.863281 -61.554688 151.207031 -57.300781 150.59375 -53 C 149.976562 -48.707031 149.234375 -44.457031 148.359375 -40.25 C 147.484375 -35.164062 146.34375 -30.164062 144.9375 -25.25 C 143.53125 -20.34375 141.691406 -15.609375 139.421875 -11.046875 C 136.085938 -4.210938 131.347656 0.78125 125.203125 3.9375 C 119.066406 7.101562 112.625 8.160156 105.875 7.109375 C 99.125 6.054688 93.03125 2.8125 87.59375 -2.625 C 84.613281 -5.613281 82.070312 -8.945312 79.96875 -12.625 C 77.863281 -16.3125 76.019531 -20.171875 74.4375 -24.203125 C 72.6875 -28.585938 71.285156 -33.054688 70.234375 -37.609375 C 69.179688 -42.171875 68.304688 -46.820312 67.609375 -51.5625 Z M 131 -134.9375 C 130.46875 -130.550781 130.769531 -126.429688 131.90625 -122.578125 C 133.050781 -118.722656 134.765625 -114.953125 137.046875 -111.265625 C 136.523438 -115.296875 136 -119.375 135.46875 -123.5 C 134.945312 -127.625 133.457031 -131.4375 131 -134.9375 Z M 131 -134.9375 "/></g></g></g><g fill="#fff" fill-opacity="1"><g transform="translate(1317.17439, 457.724034)"><g><path d="M 110.21875 -76.546875 C 111.96875 -75.492188 112.578125 -74.441406 112.046875 -73.390625 C 111.523438 -72.335938 110.914062 -71.285156 110.21875 -70.234375 C 104.082031 -61.117188 97.8125 -52.085938 91.40625 -43.140625 C 85.007812 -34.191406 78.566406 -25.25 72.078125 -16.3125 C 68.210938 -11.226562 63.648438 -7.632812 58.390625 -5.53125 C 53.128906 -3.425781 47.738281 -2.546875 42.21875 -2.890625 C 36.695312 -3.242188 31.476562 -4.515625 26.5625 -6.703125 C 21.65625 -8.898438 17.625 -11.835938 14.46875 -15.515625 C 9.726562 -21.484375 5.957031 -27.84375 3.15625 -34.59375 C 0.351562 -41.34375 -1.660156 -48.488281 -2.890625 -56.03125 C -3.421875 -58.65625 -3.816406 -61.328125 -4.078125 -64.046875 C -4.335938 -66.765625 -4.378906 -69.53125 -4.203125 -72.34375 C -4.035156 -80.757812 -3.03125 -89.039062 -1.1875 -97.1875 C 0.65625 -105.34375 3.59375 -113.28125 7.625 -121 C 9.90625 -125.382812 12.664062 -129.460938 15.90625 -133.234375 C 19.15625 -137.003906 22.972656 -140.117188 27.359375 -142.578125 C 32.265625 -145.378906 37.171875 -146.953125 42.078125 -147.296875 C 46.992188 -147.648438 51.90625 -146.160156 56.8125 -142.828125 C 61.726562 -139.503906 65.0625 -135.472656 66.8125 -130.734375 C 68.5625 -125.992188 69 -120.734375 68.125 -114.953125 C 66.550781 -104.609375 62.910156 -95.925781 57.203125 -88.90625 C 51.503906 -81.894531 43.570312 -76.898438 33.40625 -73.921875 C 30.070312 -73.035156 28.492188 -71.015625 28.671875 -67.859375 C 28.847656 -60.328125 29.679688 -52.921875 31.171875 -45.640625 C 32.660156 -38.359375 34.546875 -31.210938 36.828125 -24.203125 C 37.878906 -21.046875 39.546875 -18.238281 41.828125 -15.78125 C 44.984375 -12.445312 48.488281 -12.097656 52.34375 -14.734375 C 53.75 -15.609375 54.976562 -16.613281 56.03125 -17.75 C 57.082031 -18.894531 58.132812 -20.082031 59.1875 -21.3125 C 65.5 -28.5 71.546875 -35.90625 77.328125 -43.53125 C 83.117188 -51.164062 88.820312 -58.835938 94.4375 -66.546875 C 95.488281 -68.128906 96.582031 -69.753906 97.71875 -71.421875 C 98.863281 -73.085938 100.046875 -74.707031 101.265625 -76.28125 C 102.671875 -77.863281 103.988281 -78.65625 105.21875 -78.65625 C 106.445312 -78.65625 108.113281 -77.953125 110.21875 -76.546875 Z M 32.875 -108.640625 C 31.820312 -104.429688 30.898438 -100.175781 30.109375 -95.875 C 29.328125 -91.582031 28.9375 -87.15625 28.9375 -82.59375 C 29.8125 -82.414062 30.554688 -82.414062 31.171875 -82.59375 C 31.785156 -82.769531 32.351562 -83.035156 32.875 -83.390625 C 37.082031 -85.835938 40.675781 -89.601562 43.65625 -94.6875 C 46.644531 -99.78125 48.664062 -105.21875 49.71875 -111 C 50.769531 -116.789062 50.59375 -121.96875 49.1875 -126.53125 C 49.007812 -126.695312 48.921875 -126.910156 48.921875 -127.171875 C 48.921875 -127.441406 48.832031 -127.664062 48.65625 -127.84375 C 48.132812 -128.894531 47.566406 -129.898438 46.953125 -130.859375 C 46.335938 -131.828125 45.414062 -132.3125 44.1875 -132.3125 C 42.957031 -132.488281 41.992188 -132.132812 41.296875 -131.25 C 40.597656 -130.375 39.984375 -129.410156 39.453125 -128.359375 C 38.222656 -125.035156 37.039062 -121.75 35.90625 -118.5 C 34.769531 -115.257812 33.757812 -111.972656 32.875 -108.640625 Z M 32.875 -108.640625 "/></g></g></g></svg>